<svg width="12" height="7" viewBox="0 0 12 7" fill="none" xmlns="http://www.w3.org/2000/svg">
<path d="M11.3842 0.473272C11.4713 0.732279 11.1891 1.32255 10.5378 2.24297C10.4507 2.37192 10.3294 2.54533 10.1751 2.76098C9.87977 3.16339 9.71224 3.42684 9.67146 3.54912C9.60423 3.71475 9.62737 3.87594 9.742 4.0349C9.80923 4.12161 9.96353 4.28724 10.2049 4.53179H10.2148V4.54291L10.2247 4.55403C10.7549 5.07871 11.1142 5.52225 11.3027 5.8813C11.3159 5.90242 11.3291 5.92799 11.3434 5.95689C11.3567 5.98579 11.3666 6.03915 11.3732 6.11919C11.3798 6.19811 11.3798 6.26703 11.3732 6.32372C11.3666 6.38153 11.3192 6.43489 11.2321 6.48602C11.145 6.53604 11.0337 6.56161 10.8993 6.56161L9.45874 6.59385C9.37167 6.6083 9.26697 6.59718 9.14683 6.56161C9.02559 6.52604 8.92861 6.48269 8.85476 6.43155L8.74344 6.35596C8.62882 6.26925 8.49876 6.14031 8.35108 5.96689C8.20339 5.79459 8.07554 5.64008 7.96863 5.50335C7.86172 5.36662 7.74709 5.25101 7.62586 5.15764C7.50462 5.06426 7.39771 5.03202 7.30403 5.06093C7.29741 5.06093 7.28419 5.0676 7.26325 5.08205C7.24341 5.0965 7.20924 5.1254 7.16295 5.16875C7.11556 5.21211 7.07588 5.26991 7.04171 5.34105C7.00865 5.41331 6.97779 5.5178 6.95134 5.65453C6.92489 5.79126 6.91056 5.94911 6.91056 6.12919C6.91056 6.187 6.90394 6.24035 6.89072 6.29149C6.87749 6.34151 6.86427 6.37819 6.84994 6.39931L6.8301 6.43155C6.76287 6.51048 6.66257 6.55383 6.52811 6.56161H5.88335C5.61442 6.58273 5.34329 6.5505 5.06775 6.4649C4.79221 6.37819 4.54423 6.2737 4.32269 6.15142C4.10116 6.02915 3.90938 5.89575 3.74847 5.75235C3.58756 5.60895 3.45309 5.49335 3.34618 5.40664L3.20731 5.25435C3.17425 5.21878 3.12355 5.16097 3.05632 5.08205C2.98908 5.00312 2.85462 4.8197 2.65403 4.53179C2.45344 4.24389 2.25505 3.94152 2.05997 3.62582C1.86488 3.30901 1.63674 2.88437 1.37553 2.35191C1.11321 1.81944 0.868536 1.27253 0.640389 0.711158C0.613937 0.646685 0.599609 0.592215 0.599609 0.548862C0.599609 0.505509 0.606222 0.473272 0.619448 0.452151L0.639287 0.419914C0.699906 0.340989 0.806815 0.300971 0.961117 0.300971L2.50193 0.289855C2.54932 0.296524 2.59231 0.310976 2.63309 0.333208C2.67387 0.354329 2.70363 0.36878 2.72346 0.376561L2.75322 0.397682C2.81384 0.441035 2.85683 0.505509 2.88438 0.592215C2.95822 0.793418 3.04529 1.0024 3.14669 1.21806C3.24809 1.43371 3.32414 1.59601 3.37815 1.70383L3.46852 1.87614C3.57543 2.12069 3.68014 2.32968 3.78043 2.50198C3.88073 2.67428 3.97221 2.81101 4.05267 2.91216C4.13312 3.01332 4.21027 3.09225 4.28412 3.15005C4.35796 3.20786 4.42189 3.23676 4.47589 3.23676C4.5299 3.23676 4.5795 3.22564 4.62689 3.20452C4.6335 3.19785 4.64342 3.18674 4.65665 3.17228C4.66987 3.15783 4.69412 3.11448 4.72719 3.04334C4.76025 2.97108 4.7845 2.8777 4.79772 2.76321C4.81095 2.6476 4.82748 2.48308 4.84842 2.26631C4.86826 2.05066 4.86826 1.80277 4.84842 1.52153C4.84181 1.3559 4.82528 1.20805 4.79772 1.0791C4.77127 0.950157 4.74702 0.855669 4.72719 0.798977L4.68641 0.734502C4.59272 0.597773 4.43511 0.511067 4.21358 0.475495C4.15957 0.461044 4.16949 0.411021 4.24334 0.324315C4.30396 0.25206 4.37449 0.190921 4.45495 0.140898C4.65003 0.0397405 5.09641 -0.00694762 5.79407 0.000833714C6.10268 0.00750343 6.35507 0.0330707 6.54905 0.0764239C6.62951 0.0975446 6.69343 0.126447 6.74082 0.16313C6.78822 0.198702 6.8279 0.24539 6.86206 0.303194C6.89513 0.360999 6.91276 0.425472 6.91276 0.497728C6.91276 0.569983 6.91937 0.663359 6.9326 0.777856C6.94583 0.893464 6.94583 1.00129 6.9326 1.10134C6.91937 1.20249 6.91276 1.34589 6.91276 1.53265C6.91276 1.7194 6.91276 1.88503 6.91276 2.02954C6.91276 2.07289 6.90945 2.15515 6.90284 2.27743C6.89623 2.39971 6.89623 2.49642 6.90284 2.56867C6.90945 2.64093 6.91607 2.71985 6.92268 2.80656C6.92929 2.89327 6.94913 2.97219 6.9833 3.04445C7.01636 3.1167 7.06045 3.16673 7.11446 3.19563C7.14091 3.2023 7.17177 3.21008 7.20483 3.21675C7.2379 3.22342 7.2886 3.2023 7.35583 3.15227C7.42306 3.10225 7.4936 3.03333 7.56744 2.94774C7.64129 2.86103 7.73828 2.7243 7.85951 2.53755C7.98075 2.3508 8.1075 2.13514 8.24196 1.88947C8.4635 1.47262 8.66519 1.02241 8.84594 0.539969C8.85917 0.496616 8.8757 0.461044 8.89664 0.432142C8.91648 0.40324 8.93742 0.382119 8.95726 0.367668L8.9771 0.346547L9.00686 0.335431C9.00686 0.335431 9.03331 0.328762 9.08732 0.314311C9.14132 0.299859 9.17769 0.299859 9.19863 0.314311L10.81 0.303194C10.9577 0.282074 11.0789 0.285408 11.1726 0.314311C11.2663 0.343213 11.3236 0.378784 11.3434 0.422138L11.3842 0.473272Z" fill="white"/>
</svg>
