<svg width="12" height="10" viewBox="0 0 12 10" fill="none" xmlns="http://www.w3.org/2000/svg">
<path fill-rule="evenodd" clip-rule="evenodd" d="M10.6952 0.276788C11.2092 0.425827 11.6144 0.8623 11.7528 1.41588C12.0098 2.42722 11.9999 4.53506 11.9999 4.53506C11.9999 4.53506 11.9999 6.63226 11.7528 7.6436C11.6144 8.19717 11.2092 8.63365 10.6952 8.78269C9.75614 9.04883 5.99997 9.04883 5.99997 9.04883C5.99997 9.04883 2.2537 9.04883 1.30477 8.77204C0.790771 8.623 0.385501 8.18653 0.247116 7.63295C0 6.63226 0 4.52441 0 4.52441C0 4.52441 0 2.42722 0.247116 1.41588C0.385501 0.8623 0.800656 0.415182 1.30477 0.266142C2.24381 0 5.99997 0 5.99997 0C5.99997 0 9.75614 0 10.6952 0.276788Z" fill="white"/>
</svg>
