<svg width="17" height="16" viewBox="0 0 17 16" fill="none" xmlns="http://www.w3.org/2000/svg">
<path fill="#4D23B3" d="M15.9625 6.89687C15.85 6.00625 15.5813 5.15938 15.175 4.3625C14.675 3.37813 13.9938 2.52813 13.1438 1.82187C12.0531 0.915625 10.8094 0.334375 9.40938 0.08125C9.12813 0.03125 8.84375 0.034375 8.5625 0C8.16562 0 7.77187 0 7.375 0C7.21562 0.028125 7.05625 0.015625 6.89687 0.0375C6.00625 0.15 5.15938 0.41875 4.3625 0.825C3.37813 1.325 2.52813 2.00625 1.82187 2.85625C0.984375 3.8625 0.428125 5.00625 0.140625 6.28125C0.059375 6.64375 0.03125 7.00938 0 7.375C0 7.79063 0 8.20938 0 8.625C0.028125 8.78438 0.015625 8.94375 0.0375 9.10312C0.153125 9.99375 0.41875 10.8406 0.825 11.6375C1.32812 12.6281 2.0125 13.4781 2.86875 14.1875C3.87188 15.0188 5.0125 15.5719 6.28438 15.8594C6.65625 15.9438 7.03125 15.9719 7.40938 16C7.80625 16 8.2 16 8.59688 16C8.76562 15.9719 8.9375 15.9844 9.10625 15.9625C9.99687 15.85 10.8438 15.5813 11.6406 15.175C12.625 14.675 13.4719 13.9938 14.1812 13.1438C15.0187 12.1375 15.575 10.9937 15.8625 9.71562C15.9469 9.34375 15.975 8.96875 16.0031 8.59062C16.0031 8.20625 16.0031 7.81875 16.0031 7.43437C15.9719 7.25937 15.9875 7.075 15.9625 6.89687ZM4.36562 11.9062C2.39062 10.0688 2.22813 7.24062 3.4 5.33437C5.82188 7.75625 8.24375 10.1781 10.6625 12.6C9.00313 13.6562 6.29688 13.7031 4.36562 11.9062ZM12.5906 10.6875C10.1625 8.25937 7.74062 5.8375 5.31875 3.41563C6.95937 2.3625 9.67812 2.275 11.6344 4.09375C13.5844 5.90312 13.7875 8.725 12.5906 10.6875Z"/>
</svg>
