<svg width="16" height="13" viewBox="0 0 16 13" fill="none" xmlns="http://www.w3.org/2000/svg">
<path d="M8.98253 3.24914C10.9217 3.24914 12.8609 3.24914 14.8036 3.24914C15.5179 3.24914 16 3.70589 16 4.38257C16 6.89302 16 9.40009 16 11.9105C16 12.5162 15.4965 12.9932 14.8572 12.9932C11.0788 12.9932 7.30049 12.9898 3.52212 13C2.86859 13.0034 2.41147 12.6075 2.31148 12.1305C2.29719 12.0594 2.29005 11.985 2.29005 11.9139C2.29005 9.29858 2.29005 6.68325 2.29005 4.06453C2.29005 4.02393 2.29005 3.98671 2.29362 3.94611C2.31148 3.48259 2.53646 3.25929 3.02572 3.25591C4.00781 3.24914 4.9899 3.25252 5.97199 3.25252C6.97193 3.24914 7.97902 3.24914 8.98253 3.24914Z" fill="#4D23B3"/>
<path d="M1.14369 10.8147C0.561576 10.8655 0.00803527 10.3647 0.00446404 9.78279C-0.00267842 8.59185 0.000892807 7.40429 0.000892807 6.21335C0.000892807 4.52167 0.000892807 2.82999 0.000892807 1.1417C0.00446404 0.454874 0.483009 0.00150371 1.21154 0.00150371C2.30791 0.00150371 3.4007 -0.00187964 4.49707 0.00150371C5.20417 0.00150371 5.66129 0.397357 5.72557 1.08418C5.83271 1.08418 5.94342 1.08418 6.05413 1.08418C8.60756 1.08418 11.1574 1.08418 13.7108 1.08418C14.2787 1.08418 14.7394 1.44958 14.8429 1.97738C14.8536 2.03152 14.8536 2.08904 14.8572 2.16685C14.6394 2.16685 14.4322 2.16685 14.2287 2.16685C10.2789 2.16685 6.32554 2.16685 2.37576 2.16685C1.62223 2.16685 1.14369 2.62699 1.14369 3.34426C1.14369 5.73291 1.14369 8.12495 1.14369 10.5136C1.14369 10.6151 1.14369 10.7132 1.14369 10.8147Z" fill="#4D23B3"/>
</svg>
