<svg width="14" height="16" viewBox="0 0 14 16" fill="none" xmlns="http://www.w3.org/2000/svg">
<path d="M0.0625 15.3531C0.0437498 15.3094 0.0531254 15.25 0 15.2188C0 12.7812 0 10.3438 0 7.90625C0.00625038 7.89687 0.0124998 7.89062 0.015625 7.87813C0.015625 7.87188 0.0187502 7.86562 0.0187502 7.85938C0.0531254 7.76875 0.0812502 7.67812 0.125 7.59375C0.328125 7.20937 0.63125 6.98438 1.08438 6.99375C1.34375 7 1.60625 6.99062 1.86563 6.99687C1.975 7 2.00313 6.975 2.00313 6.8625C1.99687 6.25313 2 5.64375 2 5.03438C2.00313 2.62813 3.61875 0.625 5.97188 0.10625C6.17813 0.059375 6.3875 0.034375 6.59375 0C6.88438 0 7.17812 0 7.46875 0C7.675 0.040625 7.88125 0.075 8.08437 0.121875C10.2188 0.596875 11.7812 2.36875 11.975 4.54688C12.0437 5.30937 11.9906 6.075 11.9969 6.84062C11.9969 6.9625 12.0156 7.0125 12.1531 7.00313C12.4031 6.99063 12.6531 7 12.9031 7C13.4063 7.00313 13.7719 7.26562 13.9375 7.74062C13.9531 7.7875 13.9469 7.84688 14 7.875C14 10.3219 14 12.7719 14 15.2188C13.9469 15.2531 13.9531 15.3156 13.9312 15.3656C13.8156 15.6375 13.625 15.8281 13.35 15.9375C13.3063 15.9563 13.2469 15.9469 13.2156 16C9.09062 16 4.96562 16 0.840625 16C0.7375 15.95 0.621875 15.9375 0.51875 15.8781C0.306251 15.7563 0.15625 15.5812 0.0625 15.3531ZM4.125 7.00313C5.0875 7 6.05 7 7.0125 7C7.95937 7 8.90625 6.99688 9.85313 7.00313C9.9625 7.00313 10.0031 6.9875 10 6.8625C9.99062 6.22188 10 5.58125 9.99375 4.94063C9.97813 3.40625 8.76875 2.13437 7.20937 2.00312C5.72188 1.88125 4.33125 2.95 4.05313 4.425C4.00625 4.67188 3.99375 4.91875 3.99687 5.16875C4 5.7375 4 6.30312 3.99687 6.87187C3.99687 6.975 4.02188 7.00313 4.125 7.00313Z" fill="#4D23B3"/>
</svg>
