<svg width="15" height="15" viewBox="0 0 15 15" fill="none" xmlns="http://www.w3.org/2000/svg">
<path d="M0 11.2033C0.0611849 10.9894 0.112957 10.7755 0.183555 10.5665C0.70598 9.0011 2.21678 8.10176 3.84053 8.38858C5.32308 8.64623 6.46206 10.0755 6.45736 11.67C6.45265 13.352 5.30897 14.7035 3.6758 14.9563C3.65697 14.9611 3.64285 14.9854 3.62873 15C3.37929 15 3.12514 15 2.87569 15C2.58388 14.9562 2.29208 14.9465 2.01439 14.8201C1.07309 14.4021 0.433001 13.702 0.098837 12.6957C0.0423587 12.5256 0.0611848 12.3457 0.00470646 12.1804C-7.17118e-08 11.8499 0 11.529 0 11.2033Z" fill="#4D23B3"/>
<path d="M8.54263 11.2033C8.60381 10.9894 8.65558 10.7755 8.72618 10.5665C9.2486 9.0011 10.7594 8.10176 12.3832 8.38858C13.8657 8.64623 15.0047 10.0755 15 11.67C14.9953 13.352 13.8516 14.7035 12.2184 14.9563C12.1996 14.9611 12.1855 14.9854 12.1714 15C11.9219 15 11.6678 15 11.4183 15C11.1265 14.9562 10.8347 14.9465 10.557 14.8201C9.61571 14.4021 8.97563 13.702 8.64146 12.6957C8.58498 12.5256 8.60381 12.3457 8.54733 12.1804C8.54263 11.8499 8.54263 11.529 8.54263 11.2033Z" fill="#4D23B3"/>
<path d="M0 2.86769C0.0611849 2.65379 0.112957 2.43989 0.183555 2.23086C0.70598 0.665503 2.21678 -0.233846 3.84053 0.0529733C5.32308 0.310624 6.46206 1.73986 6.45736 3.33438C6.45265 5.01641 5.30897 6.36786 3.6758 6.62065C3.65697 6.62551 3.64285 6.64982 3.62873 6.6644C3.37929 6.6644 3.12514 6.6644 2.87569 6.6644C2.58388 6.62065 2.29208 6.61093 2.01439 6.48453C1.07309 6.06645 0.433001 5.36642 0.098837 4.36012C0.0423587 4.18998 0.0611848 4.01011 0.00470646 3.84482C-7.17118e-08 3.51425 0 3.1934 0 2.86769Z" fill="#4D23B3"/>
<path d="M8.54263 2.86769C8.60381 2.65379 8.65558 2.43989 8.72618 2.23086C9.2486 0.665503 10.7594 -0.233846 12.3832 0.0529733C13.8657 0.310624 15.0047 1.73986 15 3.33438C14.9953 5.01641 13.8516 6.36786 12.2184 6.62065C12.1996 6.62551 12.1855 6.64982 12.1714 6.6644C11.9219 6.6644 11.6678 6.6644 11.4183 6.6644C11.1265 6.62065 10.8347 6.61093 10.557 6.48453C9.61571 6.06645 8.97563 5.36642 8.64146 4.36012C8.58498 4.18998 8.60381 4.01011 8.54733 3.84482C8.54263 3.51425 8.54263 3.1934 8.54263 2.86769Z" fill="#4D23B3"/>
</svg>
