<svg width="14" height="16" viewBox="0 0 14 16" fill="none" xmlns="http://www.w3.org/2000/svg">
<path d="M14 5.37504C14 7.45942 14 9.54069 14 11.6251C13.8844 11.9063 13.6781 12.0063 13.3719 12.0032C10.4469 11.997 7.51882 11.9938 4.59385 12.0032C4.24698 12.0032 3.99386 11.7813 3.99386 11.3969C4.00323 7.78443 4.00011 4.16878 4.00011 0.556254C4.00011 0.193751 4.19073 0 4.55635 0C5.85321 0 7.15007 0 8.44693 0C8.80318 0 9.00005 0.193751 9.00005 0.546879C9.00005 1.82814 9.00005 3.1094 9.00005 4.39065C9.00005 4.81253 9.18755 5.00003 9.60942 5.00003C10.8657 5.00003 12.1188 5.00628 13.375 4.99691C13.675 4.99378 13.8844 5.09378 14 5.37504Z" fill="#4D23B3"/>
<path d="M10.6249 16C7.2093 16 3.79059 16 0.374996 16C0.196873 15.9281 0.0687493 15.8062 0 15.625C0 11.5406 0 7.45932 0 3.37492C0.115624 3.09367 0.324997 2.99054 0.628118 2.99679C1.36874 3.00929 2.10623 2.99992 2.84684 2.99992C2.89684 2.99992 2.94684 2.99992 2.99997 2.99992C2.99997 3.09679 2.99997 3.16867 2.99997 3.24367C2.99997 6.29681 2.99997 9.34683 2.99997 12.4C2.99997 12.8094 3.19059 13.0031 3.60309 13.0031C5.78119 13.0031 7.95617 13.0031 10.1343 13.0031C10.4186 13.0031 10.703 13.0031 11.003 13.0031C11.003 13.0719 11.003 13.1219 11.003 13.1719C11.003 13.9062 10.9936 14.6406 11.0061 15.375C11.0093 15.675 10.9061 15.8844 10.6249 16Z" fill="#4D23B3"/>
<path d="M11.9936 3.99986C11.503 3.99986 11.0155 3.99986 10.5249 3.99986C10.203 3.99986 9.9999 3.79673 9.9999 3.47485C9.9999 2.49047 9.9999 1.50609 9.9999 0.521705C9.9999 0.465454 10.003 0.406079 10.0186 0.352953C10.0499 0.246702 10.1311 0.218577 10.228 0.262328C10.2843 0.287328 10.3311 0.331078 10.3749 0.374828C11.4561 1.45296 12.5342 2.5311 13.6124 3.61236C13.628 3.62798 13.6467 3.64048 13.6561 3.65611C13.6874 3.73736 13.753 3.83423 13.7311 3.90298C13.7155 3.95298 13.5874 3.99673 13.5092 3.99673C13.0061 4.00298 12.4999 3.99986 11.9936 3.99986Z" fill="#4D23B3"/>
</svg>
