<svg width="14" height="16" viewBox="0 0 14 16" fill="none" xmlns="http://www.w3.org/2000/svg">
<path d="M1.84375 16C5.30313 16 8.75938 16 12.2188 16C12.7719 15.8656 13.05 15.5094 13.05 14.9344C13.05 12.1656 13.05 9.39375 13.05 6.625C13.05 6.45 13.0344 6.28125 12.9125 6.14375C12.8125 6.03438 12.6938 5.97188 12.5469 5.95625C12.4594 5.94688 12.3687 5.95 12.2812 5.95C8.7625 5.95 5.24063 5.95 1.72188 5.95C1.65 5.95 1.575 5.94688 1.50313 5.95312C1.18125 5.97188 0.971875 6.18125 0.953125 6.5C0.95 6.54063 0.95 6.58437 0.95 6.625C0.95 9.39375 0.95 12.1656 0.95 14.9344C0.95 15.3406 1.1 15.6594 1.44375 15.8875C1.56875 15.9688 1.70938 15.9688 1.84375 16Z" fill="#4D23B3"/>
<path d="M0.10625 3.45937C0.318749 3.125 0.625 2.95625 1.01875 2.95312C1.90312 2.95 2.7875 2.95312 3.67188 2.95312C3.725 2.95312 3.775 2.95312 3.82812 2.95312C3.9125 2.95312 3.95312 2.9125 3.95312 2.82812C3.95312 2.78125 3.95312 2.73438 3.95312 2.6875C3.95312 2.12188 3.94688 1.55313 3.95625 0.9875C3.95938 0.4375 4.24687 0.0875 4.75 0C6.25938 0 7.77187 0 9.28125 0C9.44688 0.025 9.59687 0.075 9.725 0.2C9.95312 0.421875 10.0438 0.69375 10.0469 1.00312C10.05 1.58125 10.0469 2.15625 10.0469 2.73438C10.0469 2.94688 10.0531 2.95312 10.2656 2.95312C11.1562 2.95312 12.0438 2.95312 12.9344 2.95312C13.5094 2.95312 13.8688 3.23438 14 3.78125C14 3.92812 14 4.07188 14 4.21875C13.9656 4.33125 13.9563 4.45 13.8875 4.55625C13.6531 4.9125 13.3156 5.05 12.9031 5.05C8.95625 5.05 5.0125 5.05 1.06563 5.05C0.490625 5.05 0.134375 4.76875 0 4.21875C0 4.08437 0 3.94688 0 3.8125C0.03125 3.69375 0.0374994 3.56875 0.10625 3.45937ZM6.10938 3.00312C6.40625 2.99688 6.70312 3 7 3C7.29688 3 7.59375 2.99688 7.89062 3.00312C7.97813 3.00625 8.00625 2.98125 8.00313 2.89062C7.99688 2.63125 7.99688 2.36875 8.00313 2.10938C8.00625 2.02187 7.98125 1.99688 7.89062 1.99688C7.29688 2 6.70312 2 6.10938 1.99688C6.02187 1.99688 5.99687 2.02187 5.99687 2.10938C6.00312 2.36875 6.00312 2.63125 5.99687 2.89062C5.99687 2.98125 6.02187 3.00312 6.10938 3.00312Z" fill="#4D23B3"/>
</svg>
