<svg width="14" height="16" viewBox="0 0 14 16" fill="none" xmlns="http://www.w3.org/2000/svg">
<path d="M14 2.18941C14 2.03882 13.9625 1.97764 13.8078 1.93529C11.5909 1.3047 9.37395 0.664705 7.1617 0.0247059C7.0539 -0.00823529 6.95079 -0.00823529 6.84299 0.0247059C4.63073 0.659999 2.42317 1.3 0.215601 1.92588C0.0468698 1.97294 0 2.04353 0 2.21294C0.00937395 3.49764 0.00468698 4.78705 0.00468698 6.07176C0.00468698 7.02705 -0.0140609 7.98234 0.149983 8.93293C0.754603 12.4812 2.8075 14.7588 6.1915 15.8553C6.64145 16.0012 7.07733 16.0576 7.56009 15.9259C11.1738 14.9329 13.6579 11.9353 13.9438 8.20823C14.0234 7.13999 13.9672 6.07646 13.9953 5.19176C13.9953 4.07176 13.9906 3.13058 14 2.18941ZM11.9846 8.14234C11.6378 11.5259 9.35989 13.3988 7.06327 14.0247C7.04921 14.0294 7.03046 14.0247 7.00234 14.0247C7.00234 12.02 7.00234 10.02 7.00234 8.01999H6.99766V8.01529C5.39471 8.01529 3.78708 8.01529 2.18413 8.0247C2.02009 8.0247 1.99665 7.96823 1.99665 7.82234C2.00134 6.44352 2.00134 5.0647 1.99665 3.68588C1.99665 3.57764 1.99665 3.49764 2.13257 3.46C3.74958 2.98 5.36659 2.49059 7.00234 2.00117C7.00234 4.01529 7.00234 6.01999 7.00234 8.01999H7.00703V8.0247C8.61466 8.0247 10.2176 8.01999 11.8252 8.0247C11.8955 8.01529 12.0033 7.96352 11.9846 8.14234Z" fill="#4D23B3"/>
</svg>
