<svg width="16" height="16" viewBox="0 0 16 16" fill="none" xmlns="http://www.w3.org/2000/svg">
<path d="M15.9967 7.32021C15.99 6.81037 15.58 6.40716 15.0701 6.40383C14.7601 6.4005 14.4468 6.40383 14.1368 6.40383C13.7269 6.40383 13.3902 6.18057 13.2436 5.82401C13.0969 5.45746 13.1769 5.08091 13.4736 4.78767C13.6869 4.5744 13.9035 4.3678 14.1135 4.15453C14.5168 3.748 14.5135 3.18151 14.1035 2.7783C13.8002 2.47839 13.4936 2.17849 13.1903 1.87858C12.797 1.4887 12.2303 1.49203 11.8371 1.88524C11.6271 2.09851 11.4204 2.31844 11.2104 2.53171C10.9205 2.82495 10.5338 2.91159 10.1739 2.75164C9.79724 2.58503 9.60726 2.28845 9.60059 1.87525C9.59726 1.56534 9.60059 1.25211 9.60059 0.942206C9.59726 0.412371 9.19063 0.00583151 8.66068 0.00249922C8.22072 -0.000833073 7.78409 -0.000833073 7.34413 0.00249922C6.81085 0.00583151 6.40756 0.409039 6.40089 0.938873C6.39756 1.24878 6.40089 1.56201 6.39756 1.87191C6.39422 2.28512 6.20091 2.58169 5.82761 2.75164C5.47097 2.91159 5.07768 2.82495 4.7877 2.53504C4.58106 2.32844 4.37441 2.11517 4.16776 1.90524C3.74447 1.48204 3.18785 1.4787 2.76789 1.90191C2.47125 2.20181 2.17461 2.50172 1.87797 2.80496C1.48134 3.2115 1.48468 3.76799 1.88797 4.16786C2.10795 4.3878 2.34126 4.5944 2.55791 4.81766C2.83122 5.10424 2.89788 5.44746 2.75456 5.81735C2.62124 6.16724 2.27794 6.39383 1.89797 6.39717C1.57134 6.4005 1.24137 6.39384 0.91473 6.4005C0.411443 6.40716 0.00814739 6.81037 0.00148134 7.31355C-0.00185168 7.54014 0.00148134 7.77007 0.00148134 7.99667C0.00148134 8.20327 0.00148134 8.40654 0.00148134 8.61314C0.00148134 9.19963 0.398111 9.59617 0.978058 9.5995C1.27136 9.5995 1.568 9.5995 1.86131 9.5995C2.2746 9.60283 2.60457 9.81943 2.75456 10.1793C2.90455 10.5425 2.82122 10.9224 2.52791 11.2157C2.30793 11.4356 2.08129 11.6489 1.86464 11.8721C1.49134 12.2553 1.49468 12.8218 1.87131 13.2017C2.18128 13.5116 2.49458 13.8215 2.80789 14.1248C3.20785 14.5146 3.77113 14.5113 4.1611 14.1148C4.37774 13.8982 4.58439 13.6749 4.7977 13.4583C5.08101 13.175 5.46431 13.0951 5.82428 13.245C6.17424 13.3883 6.39756 13.7282 6.39756 14.1248C6.39756 14.4347 6.39756 14.7479 6.39756 15.0578C6.40089 15.5876 6.80418 15.9942 7.33747 15.9975C7.77743 16.0008 8.21406 16.0008 8.65401 15.9975C9.1873 15.9942 9.59393 15.591 9.59726 15.0611C9.60059 14.7512 9.59393 14.438 9.59726 14.1281C9.60393 13.7182 9.79058 13.415 10.1672 13.2484C10.5238 13.0884 10.9138 13.175 11.2071 13.465C11.4204 13.6782 11.6271 13.8915 11.8404 14.1048C12.247 14.5146 12.8103 14.5146 13.2169 14.1081C13.5202 13.8049 13.8202 13.5016 14.1168 13.195C14.5135 12.7918 14.5101 12.2287 14.1068 11.8321C13.8969 11.6255 13.6835 11.4256 13.4736 11.219C13.1769 10.9291 13.0936 10.5425 13.2403 10.1827C13.3869 9.82276 13.7235 9.60283 14.1302 9.60283C14.4468 9.5995 14.7634 9.60616 15.0801 9.60283C15.58 9.59617 15.99 9.18963 15.9933 8.68979C16.0033 8.22993 16 7.77674 15.9967 7.32021ZM11.0205 8.09664C10.9438 9.81943 9.52393 11.0624 7.90742 11.0191C6.21424 10.9391 4.90436 9.53952 4.98102 7.89337C5.05768 6.21722 6.46088 4.9043 8.10073 4.97761C9.77391 5.05425 11.0938 6.46381 11.0205 8.09664Z" fill="#4D23B3"/>
</svg>
