<svg width="16" height="18" viewBox="0 0 16 18" fill="none" xmlns="http://www.w3.org/2000/svg">
<path d="M2.20429 17.9949C1.56873 17.9898 0.928121 17.9696 0.29256 17.9036C0.105927 17.8833 0 17.8225 0 17.6095C0.0302648 15.8039 0.277428 14.0439 1.31652 12.5072C1.95712 11.5638 2.84489 10.9146 3.8739 10.4429C4.16646 10.3111 4.45397 10.3415 4.74653 10.4531C5.79067 10.8385 6.76419 11.3762 7.75284 11.8935C7.94956 11.9949 8.10088 12 8.30265 11.8935C9.25095 11.3964 10.1942 10.8943 11.1879 10.4937C11.6469 10.3111 12.0504 10.3567 12.4792 10.5799C14.174 11.4674 15.2535 12.8318 15.6974 14.7134C15.9395 15.7329 15.9496 16.7675 16 17.8022C16.0101 17.9898 15.8991 17.9543 15.7932 17.9543C14.8499 17.9594 13.9117 17.9594 12.9685 17.9645C11.4048 17.9645 9.84111 17.9645 8.27743 17.9645C8.27743 17.9746 4.22699 18.0101 2.20429 17.9949Z" fill="#4D23B3"/>
<path d="M7.97477 8.92646C10.4263 8.92646 12.4136 6.9282 12.4136 4.46323C12.4136 1.99826 10.4263 0 7.97477 0C5.52327 0 3.53594 1.99826 3.53594 4.46323C3.53594 6.9282 5.52327 8.92646 7.97477 8.92646Z" fill="#4D23B3"/>
</svg>
