<svg width="17" height="14" viewBox="0 0 17 14" fill="none" xmlns="http://www.w3.org/2000/svg">
<path d="M15.9854 3.89144C15.9854 4.67554 15.9854 5.44142 15.9854 6.22918C15.9141 6.22918 15.8467 6.22918 15.7829 6.22918C14.0135 6.22918 12.2479 6.22918 10.4785 6.22918C9.47756 6.22918 8.79904 6.88929 8.80279 7.86669C8.80279 8.20586 8.78405 8.55233 8.84403 8.88421C8.98273 9.60996 9.63501 10.106 10.3998 10.1096C12.1804 10.1133 13.961 10.1096 15.7417 10.1096C15.8167 10.1096 15.8916 10.1096 15.9741 10.1096C15.9854 10.1461 16.0003 10.1753 16.0003 10.2008C16.0003 10.7405 16.0191 11.2839 15.9929 11.8237C15.9291 13.0455 14.8795 14.001 13.6237 14.001C9.90117 14.001 6.17868 14.001 2.45245 14.001C1.05417 14.001 0.0120281 12.9908 0.0120281 11.6304C0.00827935 9.08844 0.00827935 6.55011 0.0120281 4.00814C0.0120281 3.38815 -0.00671556 2.76815 0.027023 2.14816C0.0795052 0.966525 1.13665 0.00371183 2.35873 0.00371183C6.1187 6.48074e-05 9.87868 6.48074e-05 13.6424 0.00371183C14.887 0.00371183 15.9404 0.995701 15.9929 2.20287C15.9929 2.23934 15.9929 2.27581 15.9929 2.33416C15.9029 2.33416 15.8242 2.33416 15.7454 2.33416C11.5843 2.33416 7.42326 2.33416 3.26592 2.33416C2.65488 2.33416 2.25752 2.84474 2.45245 3.37721C2.56866 3.69814 2.86106 3.88779 3.25468 3.89144C3.85447 3.89508 4.45427 3.89144 5.05407 3.89144C8.61536 3.89144 12.1766 3.89144 15.7379 3.89144C15.8167 3.89144 15.8954 3.89144 15.9854 3.89144Z" fill="#4D23B3"/>
</svg>
