<svg width="11" height="8" viewBox="0 0 11 8" fill="none" xmlns="http://www.w3.org/2000/svg">
<path d="M9.94422 2.46592C9.80507 2.55681 9.38563 2.82674 8.68586 3.27559C7.98608 3.72444 7.45 4.07004 7.0776 4.31242C7.03668 4.33898 6.94976 4.39674 6.81678 4.48575C6.68378 4.57483 6.57327 4.64681 6.48534 4.70172C6.39734 4.75661 6.29095 4.81818 6.16608 4.88634C6.04125 4.95444 5.92358 5.00567 5.81309 5.03958C5.70258 5.07377 5.60029 5.09071 5.50618 5.09071H5.49382C5.39971 5.09071 5.29737 5.07375 5.18686 5.03958C5.07642 5.00567 4.95864 4.95438 4.83392 4.88634C4.70913 4.8181 4.60275 4.75659 4.51475 4.70172C4.42675 4.64681 4.31633 4.57483 4.18328 4.48575C4.05033 4.39666 3.9633 4.33898 3.92238 4.31242C3.54596 4.07004 2.58828 3.45448 1.04965 2.4658C0.750932 2.2727 0.50136 2.0397 0.300872 1.76695C0.100233 1.49433 2.09808e-05 1.20833 2.09808e-05 0.909119C2.09808e-05 0.659083 0.0972662 0.445047 0.29167 0.267032C0.486052 0.0889775 0.716274 0 0.982186 0H10.0179C10.333 0 10.5755 0.0984704 10.7453 0.295411C10.9151 0.492392 11 0.738607 11 1.03404C11 1.27267 10.8874 1.53127 10.6624 1.80966C10.4374 2.08808 10.1979 2.30685 9.94422 2.46592Z" fill="#4D23B3"/>
<path d="M0.613934 3.07382C1.95605 3.91465 2.97515 4.56812 3.67074 5.03409C3.904 5.19312 4.09322 5.31726 4.23854 5.40622C4.38386 5.49524 4.57712 5.58614 4.81861 5.6789C5.06001 5.7718 5.28499 5.81811 5.49373 5.81811H5.50616C5.71486 5.81811 5.93997 5.7718 6.18137 5.6789C6.42277 5.58614 6.61616 5.49524 6.76144 5.40622C6.90667 5.31726 7.09596 5.19312 7.32919 5.03409C7.88168 4.65911 8.89859 4.0056 10.38 3.07382C10.6133 2.92997 10.8199 2.76509 11 2.57951V7.09078C11 7.34094 10.9039 7.55485 10.7115 7.73289C10.5192 7.91098 10.2879 8 10.0178 8H0.9821C0.71206 8 0.480826 7.91098 0.288487 7.73289C0.0960836 7.55479 0 7.34096 0 7.09078V2.57951C0.175999 2.76125 0.380551 2.92613 0.613934 3.07382Z" fill="#4D23B3"/>
</svg>
