<svg width="6" height="11" viewBox="0 0 6 11" fill="none" xmlns="http://www.w3.org/2000/svg">
<path d="M5.77406 0.00228873L4.33493 0C2.71812 0 1.67327 1.06254 1.67327 2.70711V3.95528H0.226289C0.101253 3.95528 0 4.05575 0 4.17969V5.98813C0 6.11206 0.101368 6.21243 0.226289 6.21243H1.67327V10.7757C1.67327 10.8996 1.77452 11 1.89956 11H3.78745C3.91249 11 4.01374 10.8995 4.01374 10.7757V6.21243H5.70559C5.83063 6.21243 5.93188 6.11206 5.93188 5.98813L5.93258 4.17969C5.93258 4.12018 5.90868 4.06319 5.8663 4.02108C5.82393 3.97896 5.76621 3.95528 5.70617 3.95528H4.01374V2.89719C4.01374 2.38864 4.136 2.13047 4.80436 2.13047L5.77383 2.13013C5.89875 2.13013 6 2.02965 6 1.90583V0.226585C6 0.102879 5.89886 0.00251761 5.77406 0.00228873Z" fill="#395599"/>
</svg>
