<svg width="12" height="12" viewBox="0 0 12 12" fill="none" xmlns="http://www.w3.org/2000/svg">
<path d="M3.33333 0C1.49267 0 0 1.49267 0 3.33333V8.66667C0 10.5073 1.49267 12 3.33333 12H8.66667C10.5073 12 12 10.5073 12 8.66667V3.33333C12 1.49267 10.5073 0 8.66667 0H3.33333ZM10 1.33333C10.368 1.33333 10.6667 1.632 10.6667 2C10.6667 2.368 10.368 2.66667 10 2.66667C9.632 2.66667 9.33333 2.368 9.33333 2C9.33333 1.632 9.632 1.33333 10 1.33333ZM6 2.66667C7.84067 2.66667 9.33333 4.15933 9.33333 6C9.33333 7.84067 7.84067 9.33333 6 9.33333C4.15933 9.33333 2.66667 7.84067 2.66667 6C2.66667 4.15933 4.15933 2.66667 6 2.66667ZM6 4C5.46957 4 4.96086 4.21071 4.58579 4.58579C4.21071 4.96086 4 5.46957 4 6C4 6.53043 4.21071 7.03914 4.58579 7.41421C4.96086 7.78929 5.46957 8 6 8C6.53043 8 7.03914 7.78929 7.41421 7.41421C7.78929 7.03914 8 6.53043 8 6C8 5.46957 7.78929 4.96086 7.41421 4.58579C7.03914 4.21071 6.53043 4 6 4Z" fill="#DC1D6D"/>
</svg>
