<svg width="7" height="11" viewBox="0 0 7 11" fill="none" xmlns="http://www.w3.org/2000/svg">
<path d="M2.92617 7.74797C2.02245 7.65903 1.20761 7.44901 0.50998 6.93416C0.423417 6.87011 0.334046 6.80836 0.255053 6.73682C-0.0502978 6.4601 -0.0810649 6.14317 0.160554 5.81657C0.367255 5.53708 0.714239 5.46231 1.0749 5.62279C1.14473 5.6539 1.21127 5.69272 1.27501 5.73442C2.57516 6.57737 4.36124 6.60065 5.66627 5.77233C5.79557 5.67878 5.93377 5.60252 6.09396 5.56358C6.40541 5.48812 6.69587 5.59606 6.86301 5.8532C7.05397 6.14686 7.05152 6.43349 6.81625 6.66147C6.45535 7.011 6.02131 7.26388 5.53905 7.44037C5.08304 7.60719 4.58356 7.69117 4.08922 7.74693C4.16381 7.82354 4.19898 7.86121 4.24562 7.90545C4.91687 8.54184 5.59106 9.17558 6.26013 9.81393C6.48807 10.0314 6.53569 10.3011 6.41018 10.5541C6.27295 10.8306 5.96576 11.0125 5.66456 10.993C5.47373 10.9806 5.3249 10.891 5.19268 10.7653C4.68612 10.2843 4.17004 9.8122 3.67374 9.32212C3.5293 9.17961 3.45983 9.20657 3.33237 9.3303C2.82276 9.82533 2.30485 10.3128 1.78388 10.7974C1.54996 11.015 1.27159 11.0542 1.0003 10.9299C0.71192 10.798 0.528416 10.5202 0.542579 10.2411C0.552346 10.0523 0.650752 9.90805 0.788105 9.77867C1.4524 9.15277 2.11487 8.52525 2.77759 7.89831C2.82142 7.8566 2.86232 7.81237 2.92617 7.74797Z" fill="#F79419"/>
<path d="M3.47668 5.56772C1.86446 5.56254 0.542457 4.3014 0.551858 2.7777C0.561136 1.23719 1.884 -0.00425162 3.51209 1.0944e-05C5.14348 0.0041583 6.45291 1.26346 6.44473 2.81998C6.43643 4.34057 5.10526 5.57302 3.47668 5.56772ZM4.9419 2.78139C4.93909 2.02484 4.30056 1.42255 3.50037 1.42186C2.69347 1.42106 2.04919 2.03429 2.05541 2.79775C2.0614 3.55142 2.70543 4.14944 3.50782 4.14668C4.30776 4.14403 4.94459 3.53782 4.9419 2.78139Z" fill="#F79419"/>
</svg>
