<svg width="16" height="14" viewBox="0 0 16 14" fill="none" xmlns="http://www.w3.org/2000/svg">
<path d="M5.98084 6.94332C7.81939 6.94332 9.30984 5.38901 9.30984 3.47166C9.30984 1.55432 7.81939 0 5.98084 0C4.14229 0 2.65185 1.55432 2.65185 3.47166C2.65185 5.38901 4.14229 6.94332 5.98084 6.94332Z" fill="#9099A9"/>
<path d="M1.65315 13.9971C1.1765 13.9931 0.696063 13.9774 0.219411 13.9261C0.079442 13.9103 0 13.863 0 13.6973C0.0226977 12.2928 0.208062 10.9239 0.98735 9.72853C1.46778 8.99475 2.13358 8.48978 2.90531 8.12289C3.12472 8.02032 3.34035 8.04399 3.55976 8.13078C4.24112 8.39166 4.88244 8.74218 5.52597 9.09391C5.62198 9.14638 5.71815 9.19895 5.81439 9.25118C5.96193 9.33008 6.07542 9.33403 6.22674 9.25118L6.34819 9.18512C7.01861 8.82034 7.68777 8.45625 8.39058 8.16234C8.73483 8.02032 9.03747 8.05582 9.35902 8.22941C9.39409 8.24846 9.42881 8.26779 9.46317 8.2874C9.16534 8.96443 9 9.7129 9 10.5C9 11.8162 9.46235 13.0245 10.2335 13.9712C10.0645 13.9718 9.89533 13.9725 9.72597 13.9734H6.20782C6.20782 13.9813 3.17011 14.0089 1.65315 13.9971Z" fill="#9099A9"/>
<path d="M13 8V10H11V11H13V13H14V11H16V10H14V8H13Z" fill="#9099A9"/>
</svg>
