<svg width="11" height="10" viewBox="0 0 11 10" fill="none" xmlns="http://www.w3.org/2000/svg">
<path d="M0 10C0 6.99741 0 4.01468 0 1.00415C0.342742 1.00415 0.677419 0.992238 1.00806 1.00812C1.18952 1.01607 1.24194 0.952521 1.22984 0.781739C1.18952 0.114497 1.39516 -0.0245116 2.02016 0.00329015C2.23387 0.0112335 2.45161 0.00329015 2.66532 0.00726182C2.96774 0.0112335 3.14919 0.189959 3.16935 0.487835C3.17742 0.59507 3.17742 0.698334 3.16935 0.805569C3.15726 0.956492 3.21774 1.00812 3.37903 1.00812C4.44758 1.00018 5.51613 1.00415 6.58468 1.00415C6.93548 1.00415 7.28226 1.00018 7.63307 1.00812C7.77419 1.0121 7.82258 0.964436 7.81855 0.825427C7.81452 0.674503 7.81452 0.519608 7.84274 0.372656C7.8871 0.150242 8.05645 0.0152052 8.28629 0.0112335C8.62097 0.00329015 8.95968 0.00329015 9.29436 0.00726182C9.56452 0.0152052 9.75403 0.213789 9.77016 0.47592C9.77016 0.487835 9.77016 0.503721 9.77016 0.515636C9.77823 1.00415 9.77823 1.00415 10.2863 1.00415C10.5 1.00415 10.7177 1.00415 10.9315 1.00812C10.9516 1.00812 10.9677 1.02004 11 1.02798C11 4.01468 11 7.00138 11 10C7.32258 10 3.67339 10 0 10ZM9.77823 4.41979C9.63307 4.41979 9.50807 4.41979 9.37903 4.41979C8.8871 4.41979 8.39919 4.41979 7.90726 4.41979C5.7379 4.41979 3.56855 4.41979 1.39516 4.41582C1.24597 4.41582 1.20161 4.46745 1.20565 4.61044C1.20968 5.92903 1.20968 7.24366 1.20968 8.56225C1.20968 8.82438 1.20968 8.82438 1.4879 8.82438C4.16936 8.82438 6.85081 8.82438 9.53226 8.82438C9.60887 8.82438 9.68952 8.82438 9.77823 8.82438C9.77823 7.35486 9.77823 5.90917 9.77823 4.41979Z" fill="#9099A9"/>
</svg>
