<svg width="16" height="14" viewBox="0 0 16 14" fill="none" xmlns="http://www.w3.org/2000/svg">
<path d="M16 0.800091C16 4.01785 16 7.23561 16 10.4534C15.8687 10.9549 15.5062 11.2187 14.9467 11.2187C13.04 11.2187 11.1334 11.2187 9.22993 11.2158C9.07677 11.2158 8.94862 11.2535 8.8236 11.3346C7.90154 11.9289 6.97324 12.5203 6.04493 13.1116C5.6386 13.3725 5.22602 13.6247 4.82594 13.8943C4.65091 14.0132 4.46025 14.0335 4.26646 13.9465C4.07892 13.8625 3.97578 13.7175 3.95702 13.5233C3.95077 13.4653 3.9539 13.4073 3.9539 13.3494C3.9539 12.7261 3.9539 12.1028 3.9539 11.4796C3.9539 11.2158 3.9539 11.2158 3.67572 11.2158C2.78492 11.2158 1.89412 11.2187 1.00332 11.2129C0.615745 11.21 0.315687 11.0534 0.106271 10.7462C0.0437586 10.6534 0.0312561 10.549 0 10.4476C0 7.22111 0 3.99176 0 0.765305C0.131276 0.258 0.487595 0 1.06271 0C5.68549 0 10.3114 0 14.9342 0C15.3374 0 15.6593 0.139146 15.8875 0.458023C15.9625 0.562383 15.9687 0.684136 16 0.800091Z" fill="#9099A9"/>
</svg>
