<svg width="14" height="14" viewBox="0 0 14 14" fill="none" xmlns="http://www.w3.org/2000/svg">
<path d="M14 0.676309C14 0.263195 13.7551 -0.003034 13.3266 2.61029e-05C11.8207 0.0153266 10.3148 0.00614631 8.81198 0.00614631C6.08177 0.00614631 3.35461 0.00614631 0.624399 0.00614631C0.220376 0.00614631 0 0.226474 0 0.633468C0 3.75783 0 6.88526 0 10.0127C0 10.4105 0.232619 10.6369 0.62746 10.6369C2.98426 10.6369 5.34106 10.6369 7.69786 10.6339C7.7958 10.6339 7.8662 10.6614 7.9366 10.7318C8.50896 11.3071 9.08133 11.8793 9.65676 12.4546C10.1618 12.9596 10.6638 13.4645 11.1963 14C11.1963 13.9021 11.1963 13.8531 11.1963 13.8011C11.1963 12.7974 11.1994 11.7906 11.1933 10.7869C11.1933 10.6553 11.2269 10.6308 11.3524 10.6308C12.0258 10.6369 12.6992 10.6339 13.3725 10.6339C13.7643 10.6339 13.9939 10.4105 13.9939 10.0219C13.9939 6.90668 13.9908 3.79149 14 0.676309ZM3.62702 6.16001C3.16791 6.15083 2.80367 5.77444 2.80673 5.30931C2.80979 4.83499 3.17709 4.48002 3.65763 4.48002C4.11369 4.48308 4.49322 4.86865 4.48404 5.32461C4.47486 5.79586 4.08614 6.1692 3.62702 6.16001ZM7.01224 6.16001C6.54701 6.16613 6.16135 5.78362 6.16135 5.31849C6.16135 4.85947 6.53782 4.48308 7 4.48002C7.47136 4.48002 7.83865 4.85029 7.83865 5.32461C7.83559 5.78056 7.46524 6.15389 7.01224 6.16001ZM10.3516 6.16001C9.8955 6.15695 9.51902 5.7775 9.51902 5.31849C9.51902 4.85335 9.8955 4.48002 10.3669 4.48308C10.826 4.48308 11.1994 4.85947 11.1994 5.31849C11.1963 5.78362 10.8137 6.16613 10.3516 6.16001Z" fill="#9099A9"/>
</svg>
