<svg width="30" height="32" viewBox="0 0 30 32" fill="none" xmlns="http://www.w3.org/2000/svg">
<g clip-path="url(#clip0)">
<path d="M26.9189 5.17275C26.5531 5.55228 26.1944 5.93884 25.8146 6.29729C25.6317 6.47299 25.7864 6.57139 25.8638 6.67682C26.6657 7.85758 27.1651 9.15079 27.3902 10.5565C27.974 14.2323 26.2366 18.0205 23.0783 20.0025C21.6786 20.874 20.1592 21.359 18.5203 21.4644C18.457 21.3801 18.5273 21.3309 18.5555 21.2747C19.0619 20.4102 19.4347 19.4895 19.6739 18.5266C19.7231 18.3228 19.8075 18.2173 20.0115 18.1471C22.8181 17.1982 24.5695 14.668 24.4781 11.7021C24.3937 8.68692 22.0232 6.02318 19.0267 5.5804C15.3972 5.04624 12.0983 7.38668 11.5707 10.9852C11.1768 13.677 12.1756 15.8488 14.4335 17.4021C14.6938 17.5778 14.729 17.7183 14.6164 17.9854C14.3069 18.7304 13.8638 19.384 13.294 19.9533C13.1463 20.1009 13.0479 20.1009 12.879 19.9885C9.79111 17.8729 8.2577 14.9492 8.54609 11.2241C8.82042 7.69592 10.6352 5.04624 13.8286 3.48595C17.0502 1.91161 20.2225 2.17165 23.2401 4.09742C23.5074 4.2661 23.641 4.23798 23.838 4.02713C24.1475 3.6968 24.4922 3.39458 24.8228 3.07831C24.8087 3.0502 24.8017 3.02208 24.7876 2.99397C24.5414 2.99397 24.2882 3.001 24.042 2.99397C23.6692 2.98694 23.4933 2.79718 23.4863 2.42467C23.4793 1.81321 23.4863 1.20877 23.4863 0.597308C23.4863 0.189665 23.6551 -9.98443e-05 24.0561 -9.98443e-05C25.8357 -0.00712818 27.6223 -0.00712818 29.4019 -9.98443e-05C29.8099 -9.98443e-05 29.9787 0.175608 29.9787 0.583252C29.9857 2.35439 29.9857 4.1185 29.9787 5.88964C29.9787 6.3254 29.8028 6.50111 29.3597 6.50111C28.7759 6.50814 28.185 6.50814 27.6012 6.50111C27.1651 6.49408 26.9963 6.31837 26.9892 5.87559C26.9892 5.65771 26.9892 5.43983 26.9892 5.22195C26.9822 5.20789 26.9541 5.19384 26.9189 5.17275Z" fill="#4D23B3"/>
<path d="M9.04554 6.51538C8.45468 7.52746 8.02561 8.53251 7.78645 9.60785C7.75128 9.7695 7.6317 9.79058 7.51213 9.83275C5.19794 10.641 3.73487 12.2294 3.16512 14.6191C2.32104 18.1613 4.80404 21.8442 8.39841 22.3994C11.824 22.9336 14.8978 20.9516 15.7982 17.6201C16.5086 14.9845 15.3761 12.0467 13.0549 10.5848C12.7947 10.4161 12.7595 10.2826 12.872 10.0085C13.1886 9.25643 13.6247 8.58874 14.2155 8.01242C14.3351 7.89293 14.4195 7.87888 14.5672 7.97727C16.9588 9.54459 18.4641 11.7234 18.8509 14.5558C19.3996 18.5971 17.8873 21.7669 14.518 24.037C13.5825 24.6696 12.5274 25.0772 11.409 25.274C11.0995 25.3302 10.9095 25.4216 10.9869 25.78C11.001 25.8574 10.9869 25.9417 10.994 26.026C11.0151 26.3353 10.8533 26.764 11.0573 26.9327C11.2472 27.0873 11.6622 26.9889 11.9717 26.9889C12.9635 26.9959 12.9916 27.0241 12.9986 28.0221C12.9986 28.4789 13.0057 28.9358 12.9986 29.3926C12.9916 29.8213 12.8228 29.983 12.4008 29.99C12.028 29.997 11.6481 30.0111 11.2753 29.99C11.0291 29.976 10.9799 30.0673 10.994 30.2852C11.008 30.6577 11.001 31.0372 10.994 31.4097C10.9869 31.8033 10.8322 31.9861 10.4523 31.9931C9.81928 32.0071 9.18622 32.0071 8.55316 31.9931C8.17332 31.9861 8.00451 31.8033 7.99044 31.4168C7.97637 31.0162 7.97637 30.6226 7.99044 30.222C7.99747 30.0392 7.93417 29.983 7.75128 29.983C7.35034 29.997 6.95644 29.99 6.5555 29.983C6.1827 29.976 5.99982 29.7932 5.99278 29.4207C5.98575 28.8022 5.98575 28.1767 5.99278 27.5582C5.99982 27.1857 6.17567 27.003 6.5555 26.9889C6.95644 26.9749 7.35034 26.9749 7.75128 26.9889C7.93417 26.9959 7.99747 26.9327 7.99044 26.75C7.97637 26.3775 7.97637 25.9979 7.99044 25.6254C7.99747 25.4146 7.9201 25.3583 7.72315 25.3162C5.29642 24.8382 3.3269 23.6153 1.85679 21.6333C0.365584 19.6303 -0.211204 17.3671 0.063122 14.8861C0.49923 10.9011 3.54495 7.49232 7.62467 6.68406C8.07485 6.60675 8.53206 6.55052 9.04554 6.51538Z" fill="#FF6056"/>
</g>
<defs>
<clipPath id="clip0">
<rect width="30" height="32" fill="white"/>
</clipPath>
</defs>
</svg>
