<svg width="15" height="15" viewBox="0 0 15 15" fill="none" xmlns="http://www.w3.org/2000/svg">
<path d="M0.506189 14.9998C0.10145 14.9932 -0.0378865 14.8208 0.00855895 14.4693C0.121355 13.7066 0.280597 12.9506 0.353582 12.1813C0.426568 11.4385 0.778227 10.8947 1.29576 10.3907C3.49197 8.22865 5.66164 6.04011 7.84457 3.85821C8.26922 3.43377 8.42846 3.43377 8.8531 3.85158C9.64267 4.64078 10.4322 5.42998 11.2218 6.21918C11.5668 6.56404 11.5668 6.76299 11.2152 7.11449C8.92609 9.40913 6.62372 11.7038 4.32799 13.9984C3.94979 14.3764 3.49197 14.5489 2.97443 14.6152C2.12514 14.7346 1.27586 14.8805 0.506189 14.9998Z" fill="#9099A9"/>
<path d="M14.0019 3.6924C14.0152 4.09695 13.8626 4.44844 13.5905 4.74025C13.2853 5.05858 12.9735 5.37028 12.655 5.67535C12.3962 5.92736 12.1375 5.92736 11.8721 5.66872C11.0294 4.82646 10.1868 3.98421 9.3441 3.14195C9.07206 2.87004 9.07206 2.63793 9.33747 2.36602C9.64268 2.04769 9.95453 1.73599 10.273 1.43092C10.8702 0.860571 11.7327 0.847307 12.3365 1.41102C12.7744 1.81557 13.1858 2.24664 13.6038 2.67109C13.8758 2.95626 14.0085 3.29449 14.0019 3.6924Z" fill="#9099A9"/>
</svg>
