<svg width="13" height="10" viewBox="0 0 13 10" fill="none" xmlns="http://www.w3.org/2000/svg">
<path d="M0 2.39831C0.510658 2.7042 0.99277 2.99056 1.47488 3.28018C3.10835 4.25643 4.745 5.23593 6.37847 6.21543C6.46728 6.27075 6.52754 6.27075 6.61953 6.21543C8.69071 4.97234 10.7619 3.73251 12.8331 2.49268C12.8775 2.46665 12.925 2.44061 12.9695 2.41458C13.017 2.45037 12.9948 2.49919 12.9948 2.53824C12.9948 4.63716 12.9948 6.73609 12.9948 8.83502C12.9948 9.51839 12.5254 10 11.8562 10C8.30058 10 4.74183 10 1.18625 10C0.450394 10 0 9.54117 0 8.78946C0 6.7068 0 4.62415 0 2.54149C0 2.50244 0 2.46665 0 2.39831Z" fill="#9099A9"/>
<path d="M6.50217 0C8.28789 0 10.0736 0 11.8593 0C12.4556 0 12.8902 0.38399 12.9885 0.972991C13.0043 1.07712 12.9758 1.12594 12.8902 1.178C10.7936 2.4276 8.70022 3.6837 6.60684 4.93654C6.53072 4.9821 6.4768 4.98861 6.3975 4.9398C4.30412 3.6837 2.21074 2.43085 0.114184 1.18126C0.0222025 1.12594 -0.00634358 1.07062 0.0126872 0.963228C0.104669 0.38399 0.542376 0 1.12916 0C2.92122 0 4.71011 0 6.50217 0Z" fill="#9099A9"/>
</svg>
