<svg width="12" height="12" viewBox="0 0 12 12" fill="none" xmlns="http://www.w3.org/2000/svg">
<path d="M12 11.9039C11.325 11.9039 10.65 11.9039 9.97266 11.9086C9.87891 11.9086 9.88828 11.8617 9.88594 11.8032C9.85547 10.6221 9.64922 9.47627 9.19453 8.3843C7.94531 5.37317 5.75625 3.39309 2.62734 2.46514C1.83984 2.23081 1.02891 2.12537 0.203906 2.11131C0.140625 2.11131 0.107812 2.10662 0.107812 2.02695C0.1125 1.3638 0.110156 0.700644 0.110156 0.0351494C0.110156 0.0234329 0.114844 0.0117165 0.117188 0C0.171094 0 0.227344 0 0.28125 0C0.375 0.0187463 0.46875 0.0187463 0.5625 0C0.592969 0 0.625781 0 0.65625 0C0.855469 0.0281195 1.05937 0.016403 1.26094 0.0351494C1.89844 0.0984183 2.52656 0.222613 3.14531 0.386643C3.89062 0.58348 4.61016 0.859988 5.29922 1.19977C6.16875 1.63093 6.98203 2.15583 7.72266 2.78852C8.05078 3.06737 8.36953 3.35325 8.66484 3.66491C9.38672 4.42648 10.0148 5.26069 10.5211 6.1816C10.8961 6.86116 11.2055 7.56649 11.4445 8.30463C11.6953 9.07557 11.8641 9.86526 11.9555 10.669C11.9789 10.8729 11.9812 11.0814 11.9883 11.2876C11.9883 11.3228 11.9766 11.3579 12 11.3884C12 11.4353 12 11.4821 12 11.529C11.9789 11.6391 11.9789 11.7469 12 11.8571C12 11.8735 12 11.8875 12 11.9039Z" fill="#4D23B3"/>
<path d="M0 10.1699C0.0304687 10.0668 0.05625 9.96368 0.0914063 9.86292C0.351562 9.10838 1.10391 8.67487 1.9125 8.81312C2.65078 8.93732 3.21797 9.62625 3.21562 10.3948C3.21328 11.2056 2.64375 11.8571 1.83047 11.9789C1.82109 11.9813 1.81406 11.993 1.80703 12C1.68281 12 1.55625 12 1.43203 12C1.28672 11.9789 1.14141 11.9742 1.00312 11.9133C0.534375 11.7118 0.215625 11.3743 0.0492187 10.8893C0.0210937 10.8073 0.0304688 10.7206 0.00234375 10.6409C0 10.4815 0 10.3269 0 10.1699Z" fill="#4D23B3"/>
<path d="M6.81797 11.9063C6.50156 11.9063 6.18516 11.9039 5.86875 11.9086C5.79375 11.9086 5.76328 11.8969 5.76094 11.8102C5.68594 9.19039 3.79219 6.91271 1.22813 6.35735C0.892969 6.28471 0.553125 6.23784 0.208594 6.23316C0.13125 6.23316 0.103125 6.21441 0.103125 6.13005C0.107813 5.49033 0.107813 4.85062 0.103125 4.20855C0.103125 4.11951 0.142969 4.11951 0.208594 4.12185C1.20234 4.14763 2.16328 4.33978 3.06797 4.74517C5.50781 5.83948 7.05234 7.686 7.68984 10.2871C7.81172 10.7838 7.86562 11.2923 7.88203 11.8055C7.88437 11.8875 7.86562 11.911 7.78125 11.9086C7.46016 11.9039 7.13906 11.9063 6.81797 11.9063Z" fill="#4D23B3"/>
</svg>
