<svg width="14" height="14" viewBox="0 0 14 14" fill="none" xmlns="http://www.w3.org/2000/svg">
<path d="M7 1.86688e-06C3.1388 0.00280187 0 3.1388 0 7C0 10.8556 3.1444 14.0028 7 14C10.8612 13.9972 13.9972 10.8612 14 7C14.0028 3.1444 10.8556 -0.00279813 7 1.86688e-06ZM8.9376 1.47C8.7724 1.6184 8.6212 1.764 8.4084 1.8256C8.3104 1.8536 8.2236 1.8284 8.1424 1.7808C8.0892 1.7528 8.0388 1.7164 7.9912 1.68C7.7672 1.5008 7.5208 1.4784 7.2548 1.5624C7.07 1.6184 6.8852 1.694 6.6892 1.7108C6.4624 1.7332 6.4008 1.6688 6.454 1.4504C6.4764 1.3524 6.4652 1.2684 6.4064 1.1676C7.28 1.0892 8.1088 1.1844 8.9376 1.47ZM9.8056 9.6544C9.6404 9.912 9.5312 10.192 9.4556 10.486C9.3968 10.7044 9.2652 10.878 9.0916 11.018C8.7192 11.3176 8.3608 11.6256 8.0612 12.0008C7.9016 12.2024 7.7644 12.4208 7.63 12.6364C7.5348 12.7876 7.42 12.8632 7.2324 12.8576C6.93 12.8492 6.6276 12.8576 6.3252 12.824C6.2328 12.8156 6.1852 12.7904 6.1852 12.684C6.1824 12.5496 6.1572 12.4152 6.132 12.2836C6.0788 12.0176 5.964 11.7908 5.7148 11.6564C5.544 11.564 5.4572 11.4128 5.488 11.228C5.5664 10.7436 5.3676 10.3824 5.0344 10.0576C4.746 9.7776 4.606 9.4388 4.7068 9.03C4.7292 8.9404 4.676 8.9012 4.62 8.862C4.5192 8.7892 4.4128 8.7332 4.284 8.7864C4.2756 8.7892 4.2672 8.7948 4.2588 8.7976C3.99 8.9432 3.8556 8.8956 3.7884 8.5876C3.7324 8.3356 3.5952 8.1956 3.3516 8.1172C2.8448 7.952 2.3408 7.7672 1.8368 7.588C1.736 7.5516 1.6408 7.504 1.5484 7.448C1.316 7.3108 1.2124 7.1092 1.2068 6.8348C1.1592 4.8188 2.1504 3.3572 3.6764 2.1448C3.7352 2.2596 3.808 2.3268 3.9004 2.366C4.1664 2.4864 4.3204 2.6964 4.3988 2.968C4.4156 3.0296 4.4408 3.0912 4.4632 3.1528C4.7208 2.8924 4.7376 2.576 4.5136 2.2988C4.3456 2.0916 4.3708 2.0048 4.6284 1.9236C4.7992 1.8704 4.9728 1.8396 5.152 1.8648C5.3564 1.89 5.3984 1.96 5.3396 2.156C5.334 2.1784 5.3256 2.2008 5.3172 2.2204C5.3508 2.2484 5.39 2.2372 5.4264 2.24C5.5244 2.2512 5.5692 2.2204 5.53 2.1112C5.5048 2.0384 5.474 1.946 5.5888 1.918C5.6952 1.89 5.754 1.96 5.7904 2.0468C5.8072 2.0888 5.8156 2.1364 5.8212 2.184C5.8632 2.4276 5.908 2.4724 6.146 2.5116C6.4316 2.5564 6.5884 2.7188 6.6248 3.0072C6.6528 3.2256 6.5408 3.3544 6.3196 3.3628C6.2412 3.3656 6.16 3.36 6.0844 3.3376C6.0116 3.3152 5.936 3.2928 5.8436 3.2676C5.9136 3.444 5.9528 3.6148 6.0872 3.7408C6.1852 3.8332 6.1768 3.9172 6.0592 3.9928C5.9556 4.06 5.8408 4.116 5.7288 4.1692C5.5664 4.2504 5.4544 4.354 5.4936 4.5612C5.5216 4.6956 5.4516 4.7824 5.3172 4.8188C5.2668 4.8328 5.2192 4.8524 5.1716 4.8636C5.026 4.8972 4.9448 4.984 4.9308 5.1324C4.9196 5.236 4.886 5.334 4.8048 5.404C4.6368 5.5496 4.564 5.74 4.5164 5.95C4.4884 6.0676 4.4632 6.1852 4.4072 6.2944C4.3344 6.4428 4.2252 6.4512 4.1356 6.3112C4.0908 6.2412 4.0684 6.1572 4.0348 6.0816C3.962 5.922 3.8472 5.8856 3.7296 6.0116C3.5672 6.1852 3.3852 6.216 3.1612 6.1964C2.772 6.1628 2.4164 6.4288 2.3128 6.804C2.2596 7 2.296 7.0504 2.4948 7.0588C2.8112 7.0728 3.1192 7.028 3.4132 6.9132C3.5308 6.8656 3.5448 6.93 3.5392 7.014C3.5336 7.112 3.4692 7.1848 3.4132 7.2576C3.2704 7.4536 3.332 7.5936 3.5728 7.6216C3.6596 7.6328 3.7492 7.6272 3.8388 7.6356C4.0012 7.6552 4.0796 7.7364 4.0824 7.9016C4.0852 8.0024 4.0656 8.106 4.0656 8.2096C4.0656 8.4084 4.1552 8.498 4.354 8.5092C4.5136 8.5204 4.6816 8.4588 4.8244 8.582C4.8552 8.61 4.8636 8.5624 4.8776 8.5428C4.9336 8.4476 4.984 8.3468 5.0456 8.2544C5.2332 7.9688 5.4992 7.798 5.838 7.7644C6.1404 7.7336 6.4428 7.7336 6.7452 7.784C6.9384 7.8176 7.1092 7.8988 7.2268 8.0668C7.336 8.2236 7.4816 8.288 7.672 8.2628C7.7364 8.2544 7.8036 8.2544 7.868 8.2544C8.0668 8.2628 8.1312 8.3272 8.1536 8.5204C8.1704 8.6744 8.2796 8.7808 8.456 8.792C8.568 8.8004 8.68 8.792 8.792 8.7864C9.156 8.7668 9.4696 8.8816 9.73 9.1364C9.8896 9.2988 9.926 9.464 9.8056 9.6544ZM12.1044 9.8728C12.0876 9.9008 12.0736 9.926 12.054 9.9596C11.9392 9.7832 11.9196 9.5844 11.9056 9.3912C11.8804 9.0552 11.7852 8.7528 11.536 8.512C11.3568 8.3356 11.2644 8.12 11.2308 7.868C11.1888 7.5628 11.032 7.4088 10.724 7.4256C9.9316 7.4648 9.4388 7.0028 9.0216 6.4288C8.7164 6.006 8.7724 5.6084 9.1364 5.2304C9.268 5.096 9.4164 4.984 9.5676 4.8748C9.6236 4.8328 9.6824 4.7936 9.7328 4.746C9.8672 4.6172 9.856 4.5332 9.6908 4.4492C9.5648 4.3848 9.478 4.2896 9.4332 4.1524C9.3604 3.9228 9.4416 3.738 9.6656 3.6372C10.0828 3.4524 10.0828 3.4524 9.968 3.0128C9.8868 2.702 9.9624 2.59 10.2816 2.5536C10.4552 2.534 10.626 2.5592 10.7996 2.5704C10.8416 2.5732 10.8668 2.5956 10.8948 2.6208C11.2896 2.9736 11.634 3.3712 11.928 3.8276C11.802 3.8164 11.704 3.7576 11.6088 3.7016C11.2056 3.4664 10.8052 3.5224 10.4048 3.696C10.1864 3.7912 10.0856 3.9228 10.1108 4.074C10.1332 4.2168 10.2816 4.3148 10.5168 4.326C10.6428 4.3316 10.7688 4.3148 10.8948 4.3176C11.0572 4.3204 11.1972 4.3736 11.2784 4.5276C11.3624 4.6844 11.4968 4.7208 11.6564 4.6956C11.8552 4.6648 12.0512 4.6312 12.2472 4.592C12.3144 4.578 12.3452 4.592 12.3732 4.6564C12.7708 5.5776 12.9276 6.5352 12.838 7.5348C12.7596 8.3664 12.5132 9.1448 12.1044 9.8728Z" fill="#9099A9"/>
</svg>
