<svg width="14" height="12" viewBox="0 0 14 12" fill="none" xmlns="http://www.w3.org/2000/svg">
<path d="M12.6042 0.00308093C8.86552 -0.00102698 5.12681 -0.00102698 1.38811 0.00308093C0.552178 0.00308093 0 0.606943 0 1.50247C0 4.51356 0 7.52466 0 10.5399C0 10.7042 0.0191728 10.8644 0.0690222 11.0246C0.26075 11.6367 0.74774 11.9982 1.41112 11.9982C3.27088 12.0023 5.13065 11.9982 6.99041 11.9982C8.85018 11.9982 10.7099 12.0023 12.5697 11.9982C13.4593 11.9941 14 11.4066 14 10.4577C14 7.47126 14 4.48892 14 1.50247C13.9962 0.611051 13.4402 0.00308093 12.6042 0.00308093ZM10.4799 9.98119C10.4108 9.99762 10.3418 9.99762 10.269 9.99762C7.77266 9.99762 5.27636 9.99762 2.77623 9.99762C2.74938 9.99762 2.72638 9.99762 2.69953 9.99762C2.33909 9.98119 2.18954 9.70185 2.36593 9.3609C2.84908 8.4284 3.33224 7.50412 3.81923 6.57163C4.19118 5.85685 4.56697 5.14618 4.93892 4.4273C5.02712 4.25477 5.13065 4.11921 5.33005 4.12331C5.52944 4.12742 5.63298 4.26298 5.72117 4.43551C6.31553 5.58573 6.91372 6.73594 7.51191 7.88616C7.54259 7.94367 7.57327 8.00529 7.61161 8.07923C7.86469 7.5945 8.10627 7.12619 8.35168 6.65379C8.39386 6.57573 8.42838 6.49768 8.47439 6.42374C8.65078 6.13619 8.99206 6.12797 9.14927 6.42374C9.68228 7.41786 10.2076 8.41608 10.7291 9.41841C10.8672 9.6731 10.7406 9.91957 10.4799 9.98119ZM10.8403 4.82166C10.1271 4.82577 9.5519 4.21369 9.54807 3.44551C9.54423 2.68965 10.1117 2.07347 10.8173 2.06936C11.5382 2.06936 12.1096 2.67322 12.1134 3.43729C12.1172 4.18493 11.5382 4.81755 10.8403 4.82166Z" fill="#9099A9"/>
</svg>
