<svg width="18" height="18" viewBox="0 0 18 18" fill="none" xmlns="http://www.w3.org/2000/svg">
<path d="M17.9508 7.70106C17.8278 6.77787 17.5536 5.89681 17.1424 5.06138C16.6186 3.99428 15.9192 3.06056 15.0264 2.27077C14.0316 1.38971 12.9033 0.740319 11.6274 0.357707C10.9877 0.164646 10.3374 0.0277475 9.66257 0.0172169C9.01933 0.00317606 8.37258 -0.0284158 7.73638 0.0593394C5.77856 0.326115 4.0949 1.17909 2.66784 2.54105C2.24253 2.94824 1.86995 3.40808 1.53251 3.89599C0.741652 5.05085 0.239016 6.31453 0.0456942 7.70106C0.0175747 7.89061 0.0351494 8.08367 0 8.27322C0 8.76465 0 9.25608 0 9.74751C0.0386643 9.94057 0.0210896 10.1407 0.0492091 10.3372C0.326889 12.2713 1.1775 13.9247 2.52373 15.3322C3.02636 15.8588 3.59578 16.3046 4.21793 16.6872C5.28295 17.3436 6.42882 17.7753 7.67311 17.9509C7.86995 17.9789 8.06678 17.9614 8.26362 18C8.73111 18 9.20211 18 9.6696 18C9.88752 17.9649 10.109 17.9824 10.3304 17.9509C12.2882 17.67 13.9543 16.8065 15.3673 15.4446C15.7856 15.0444 16.1476 14.5916 16.4745 14.1107C17.2583 12.9593 17.761 11.7027 17.9543 10.3232C17.9824 10.1336 17.9649 9.94057 18 9.75102C18 9.27012 18 8.79273 18 8.31183C17.9613 8.10473 17.9789 7.90114 17.9508 7.70106ZM8.25659 4.51028C8.25659 4.13118 8.5413 3.81526 8.89982 3.78016C9.28998 3.73803 9.6239 3.9662 9.71881 4.33828C9.73638 4.41199 9.73989 4.48922 9.73989 4.56293C9.73989 6.28293 9.73989 7.99942 9.73989 9.71943C9.73989 10.1758 9.42706 10.5022 8.99824 10.5022C8.56942 10.5022 8.25659 10.1758 8.25659 9.71943C8.25659 8.85942 8.25659 7.99942 8.25659 7.13942C8.25659 6.26538 8.25308 5.38783 8.25659 4.51028ZM8.99121 14.2406C8.36555 14.2371 7.86995 13.7351 7.87346 13.1103C7.88049 12.51 8.38313 12.0116 8.9877 12.0116C9.6239 12.0116 10.1265 12.5135 10.123 13.1454C10.116 13.7527 9.61336 14.2441 8.99121 14.2406Z" fill="#9099A9"/>
</svg>
