<svg width="14" height="11" viewBox="0 0 14 11" fill="none" xmlns="http://www.w3.org/2000/svg">
<path d="M6.99273 1.43406C7.46073 1.12459 7.89273 0.780726 8.37273 0.528562C9.89673 -0.28524 11.5767 -0.147696 12.7167 0.86096C13.9287 1.93839 14.3487 3.78377 13.6887 5.22798C13.0287 6.66074 11.9127 7.76109 10.6527 8.7239C9.62073 9.50331 8.51673 10.191 7.41273 10.8902C7.23273 11.0048 6.84873 11.0392 6.66873 10.9475C4.76073 9.88156 2.97273 8.66659 1.53273 7.05044C0.62073 6.03033 -0.0872709 4.92997 0.00872916 3.49722C0.224729 0.597335 3.14073 -0.892726 5.74473 0.585872C6.16473 0.838036 6.56073 1.13605 6.99273 1.43406Z" fill="#4D23B3"/>
</svg>
