<svg width="16" height="14" viewBox="0 0 16 14" fill="none" xmlns="http://www.w3.org/2000/svg">
<path d="M0 5.45828C0 4.99105 0 4.52382 0 4.0566C0.034375 3.61429 0.134375 3.19067 0.309375 2.7795C0.690625 1.89489 1.2875 1.19404 2.10625 0.683206C2.86562 0.212862 3.69687 -0.0176374 4.58437 0.00105176C5.6625 0.0259706 6.61875 0.390409 7.44375 1.08814C7.60625 1.22519 7.76875 1.36536 7.89687 1.53668C7.96562 1.62701 8.02188 1.61766 8.09375 1.53356C8.84375 0.69255 9.78125 0.184828 10.8969 0.0415449C12.2188 -0.123543 13.4 0.219092 14.4219 1.06945C15.2125 1.72668 15.7125 2.56458 15.9375 3.56756C15.975 3.73888 15.9656 3.91643 16 4.08774C16 4.54563 16 5.0004 16 5.45828C15.9531 5.98469 15.7969 6.47996 15.575 6.95964C15.2781 7.60442 14.8906 8.19313 14.4531 8.75069C13.9937 9.33628 13.4844 9.87515 12.9406 10.3829C11.9938 11.2675 10.9812 12.0711 9.91562 12.8093C9.35312 13.2018 8.775 13.5756 8.19375 13.9369C8.05625 14.021 7.94375 14.021 7.80625 13.9369C6.45312 13.1115 5.16563 12.1988 3.95312 11.1803C3.39687 10.713 2.85938 10.2178 2.3625 9.69137C1.67188 8.95938 1.04688 8.17755 0.578125 7.28359C0.3375 6.82259 0.140625 6.3429 0.04375 5.82584C0.021875 5.70436 0.034375 5.57976 0 5.45828Z" fill="#FF3131"/>
</svg>
