<svg width="11" height="13" viewBox="0 0 11 13" fill="none" xmlns="http://www.w3.org/2000/svg">
<path d="M4.89319 12.8461C4.33498 12.3385 3.75629 11.845 3.22113 11.3187C2.34029 10.4508 1.55931 9.51051 0.944771 8.46492C0.560684 7.80996 0.253414 7.12694 0.133067 6.38777C-0.00776502 5.52931 0.117703 4.69424 0.4557 3.88724C0.914044 2.79019 1.68222 1.92705 2.81656 1.35396C3.30819 1.10367 3.83567 0.928237 4.39387 0.876776C6.26054 0.701341 7.78664 1.27677 8.92354 2.65452C9.68147 3.57146 10.0579 4.61705 10.0758 5.76322C10.086 6.45561 9.8812 7.10822 9.58929 7.74213C9.18728 8.61229 8.6342 9.40057 8.00942 10.1491C7.2182 11.0918 6.33736 11.9596 5.36946 12.7526C5.33617 12.7806 5.308 12.8134 5.27984 12.8461C5.14925 12.8461 5.02122 12.8461 4.89319 12.8461ZM2.79095 5.58545C2.79095 6.748 3.81006 7.67663 5.08267 7.67663C6.32711 7.67663 7.37183 6.71993 7.37439 5.58311C7.37439 4.42992 6.34248 3.48725 5.08011 3.48725C3.81262 3.48725 2.78839 4.42524 2.79095 5.58545Z" fill="#9099A9"/>
</svg>
