<svg width="36" height="31" viewBox="0 0 36 31" fill="none" xmlns="http://www.w3.org/2000/svg">
<path d="M6 12.5C6 10.567 7.567 9 9.5 9C11.433 9 13 10.567 13 12.5C13 14.433 11.433 16 9.5 16C7.567 16 6 14.433 6 12.5Z" fill="#1E2638"/>
<path d="M6 21.5C6 19.567 7.567 18 9.5 18C11.433 18 13 19.567 13 21.5C13 23.433 11.433 25 9.5 25C7.567 25 6 23.433 6 21.5Z" fill="#1E2638"/>
<path d="M15 21.5C15 19.567 16.567 18 18.5 18C20.433 18 22 19.567 22 21.5C22 23.433 20.433 25 18.5 25C16.567 25 15 23.433 15 21.5Z" fill="#1E2638"/>
<path d="M14.625 10.6875C14.625 7.54638 17.1714 5 20.3125 5C23.4536 5 26 7.54638 26 10.6875C26 13.8286 23.4536 16.375 20.3125 16.375C17.1714 16.375 14.625 13.8286 14.625 10.6875Z" fill="#FF6056"/>
</svg>
