<svg width="21" height="5" viewBox="0 0 21 5" fill="none" xmlns="http://www.w3.org/2000/svg">
<path d="M0 1.84307C0.040625 1.70559 0.075 1.56812 0.121875 1.43377C0.46875 0.427719 1.47187 -0.150293 2.55 0.034046C3.53437 0.199639 4.29063 1.11821 4.2875 2.14301C4.28437 3.22405 3.525 4.09263 2.44062 4.2551C2.42812 4.25822 2.41875 4.27384 2.40937 4.28322C2.24375 4.28322 2.075 4.28322 1.90937 4.28322C1.71562 4.2551 1.52188 4.24885 1.3375 4.16761C0.7125 3.89892 0.2875 3.44901 0.065625 2.80226C0.028125 2.6929 0.040625 2.5773 0.00312495 2.47107C-4.77303e-08 2.25861 0 2.0524 0 1.84307Z" fill="#4D23B3"/>
<path d="M8 1.84307C8.04062 1.70559 8.075 1.56812 8.12187 1.43377C8.46875 0.427719 9.47188 -0.150293 10.55 0.034046C11.5344 0.199639 12.2906 1.11821 12.2875 2.14301C12.2844 3.22405 11.525 4.09263 10.4406 4.2551C10.4281 4.25822 10.4187 4.27384 10.4094 4.28322C10.2438 4.28322 10.075 4.28322 9.90938 4.28322C9.71562 4.2551 9.52187 4.24885 9.3375 4.16761C8.7125 3.89892 8.2875 3.44901 8.06563 2.80226C8.02812 2.6929 8.04063 2.5773 8.00313 2.47107C8 2.25861 8 2.0524 8 1.84307Z" fill="#4D23B3"/>
<path d="M16 1.84307C16.0406 1.70559 16.075 1.56812 16.1219 1.43377C16.4688 0.427719 17.4719 -0.150293 18.55 0.034046C19.5344 0.199639 20.2906 1.11821 20.2875 2.14301C20.2844 3.22405 19.525 4.09263 18.4406 4.2551C18.4281 4.25822 18.4187 4.27384 18.4094 4.28322C18.2437 4.28322 18.075 4.28322 17.9094 4.28322C17.7156 4.2551 17.5219 4.24885 17.3375 4.16761C16.7125 3.89892 16.2875 3.44901 16.0656 2.80226C16.0281 2.6929 16.0406 2.5773 16.0031 2.47107C16 2.25861 16 2.0524 16 1.84307Z" fill="#4D23B3"/>
</svg>
