<svg width="12" height="12" viewBox="0 0 12 12" fill="none" xmlns="http://www.w3.org/2000/svg">
<path d="M7.57972 8.78735C7.91818 8.46762 8.24441 8.16839 8.55433 7.85686C8.94989 7.45514 9.47186 7.42235 9.87149 7.82406C10.5239 8.47992 11.1642 9.15217 11.8003 9.82442C12.0124 10.0458 12.0572 10.3163 11.9267 10.5991C11.886 10.6852 11.8493 10.7795 11.784 10.8451C11.0541 11.6239 10.2059 12.1158 9.08446 11.9764C7.3432 11.7592 5.83846 11.0009 4.46014 9.94739C2.65364 8.566 1.34464 6.78699 0.414879 4.72515C0.0356355 3.88894 -0.151947 2.99944 0.149816 2.09764C0.337399 1.54016 0.590228 0.999083 0.879757 0.482598C1.21007 -0.103571 1.87068 -0.15276 2.3478 0.318635C2.92685 0.892507 3.51815 1.46228 4.0809 2.05255C4.23586 2.21651 4.34188 2.44606 4.42344 2.66331C4.52131 2.92156 4.42752 3.1593 4.23178 3.35196C3.90962 3.66759 3.58747 3.97912 3.25716 4.28245C3.15114 4.38083 3.14706 4.45871 3.20007 4.58168C3.62825 5.53267 4.26848 6.3197 5.03104 7.01244C5.77729 7.69699 6.6051 8.26676 7.49816 8.73816C7.53486 8.76685 7.57564 8.78325 7.57972 8.78735Z" fill="#9099A9"/>
</svg>
