<svg width="15" height="12" viewBox="0 0 15 12" fill="none" xmlns="http://www.w3.org/2000/svg">
<g opacity="0.75">
<path d="M7.48144 11.9984C5.50509 11.9984 3.53226 12.002 1.55591 11.9984C0.775222 11.9984 0.173878 11.5171 0.0261794 10.7863C0.00507958 10.6844 0.00156295 10.5755 0.00156295 10.4736C0.00156295 8.24959 -0.00195368 6.02557 0.00156295 3.79804C0.00156295 3.03914 0.451692 2.46293 1.15502 2.2978C1.29568 2.26618 1.44338 2.25564 1.59108 2.25212C2.19946 2.24861 2.81135 2.25564 3.41973 2.2451C3.4971 2.2451 3.59908 2.19239 3.64831 2.13267C4.02459 1.64781 4.39384 1.15593 4.75605 0.660529C5.07958 0.214321 5.51916 0 6.06424 0C7.01373 0 7.96322 0.00351345 8.91271 0C9.47537 0 9.91847 0.217834 10.2525 0.671069C10.6112 1.16295 10.9805 1.64781 11.3533 2.12915C11.399 2.18888 11.501 2.24158 11.5818 2.24158C12.1902 2.25212 12.8021 2.2451 13.4105 2.24861C14.367 2.24861 15 2.88103 15 3.82966C15 6.0326 15 8.23202 15 10.435C15 11.2009 14.5569 11.7841 13.843 11.9528C13.6918 11.9879 13.53 11.9949 13.3718 11.9949C11.406 12.002 9.44372 11.9984 7.48144 11.9984ZM11.2478 6.85474C11.3216 4.84856 9.6934 3.08481 7.69947 3.01103C5.54026 2.93373 3.82766 4.51479 3.74678 6.66151C3.66941 8.66066 5.32223 10.4279 7.33022 10.4947C9.44724 10.565 11.1704 8.96282 11.2478 6.85474ZM12.0003 4.50073C12.0038 4.91181 12.3344 5.2491 12.7458 5.2491C13.1608 5.25261 13.5054 4.90127 13.4984 4.49019C13.4914 4.07912 13.1573 3.75237 12.7423 3.75237C12.3344 3.75237 11.9968 4.09317 12.0003 4.50073Z" fill="white"/>
<path d="M7.50254 8.99444C6.24007 8.99092 5.24134 7.98608 5.24838 6.72475C5.25541 5.49504 6.28227 4.48668 7.51309 4.49722C8.76149 4.50776 9.7567 5.51963 9.74967 6.77042C9.74263 7.99662 8.72984 9.00146 7.50254 8.99444Z" fill="white"/>
</g>
</svg>
