<svg width="14" height="12" viewBox="0 0 14 12" fill="none" xmlns="http://www.w3.org/2000/svg">
<path opacity="0.5" d="M0.592 7.704C0.592 10.056 1.984 11.352 3.568 11.352C5.008 11.352 6.112 10.2 6.112 8.808C6.112 7.368 5.152 6.36 3.808 6.36C3.568 6.36 3.232 6.408 3.184 6.408C3.328 4.872 4.72 2.952 6.256 1.944L4.48 0.503998C2.272 2.088 0.592 4.776 0.592 7.704ZM8.272 7.704C8.272 10.056 9.664 11.352 11.248 11.352C12.688 11.352 13.84 10.2 13.84 8.808C13.84 7.368 12.832 6.36 11.488 6.36C11.248 6.36 10.912 6.408 10.864 6.408C11.056 4.872 12.4 2.952 13.936 1.944L12.16 0.503998C9.952 2.088 8.272 4.776 8.272 7.704Z" fill="#818996"/>
</svg>
