<svg width="15" height="12" viewBox="0 0 15 12" fill="none" xmlns="http://www.w3.org/2000/svg">
<path opacity="0.5" d="M14.128 4.152C14.128 1.8 12.688 0.503998 11.104 0.503998C9.712 0.503998 8.56 1.704 8.56 3.096C8.56 4.536 9.568 5.544 10.912 5.544C11.104 5.544 11.44 5.496 11.536 5.448C11.344 6.984 10 8.904 8.464 9.912L10.24 11.4C12.4 9.816 14.128 7.08 14.128 4.152ZM6.448 4.152C6.448 1.8 5.008 0.503998 3.424 0.503998C1.984 0.503998 0.88 1.704 0.88 3.096C0.88 4.536 1.84 5.544 3.184 5.544C3.424 5.544 3.76 5.496 3.856 5.448C3.664 6.984 2.272 8.904 0.736 9.912L2.512 11.4C4.72 9.816 6.448 7.08 6.448 4.152Z" fill="#9099A9"/>
</svg>
