<svg width="17" height="17" viewBox="0 0 17 17" fill="none" xmlns="http://www.w3.org/2000/svg">
<circle cx="8.5" cy="8.5" r="8.5" fill="#9099A9"/>
<path d="M6.37744 6.03223C7.03076 5.66602 7.69141 5.48291 8.35938 5.48291C9.02734 5.48291 9.53857 5.62793 9.89307 5.91797C10.2505 6.20801 10.4292 6.59473 10.4292 7.07812C10.4292 7.40039 10.356 7.67871 10.2095 7.91309C10.063 8.14746 9.81689 8.39062 9.47119 8.64258C9.12549 8.8916 8.91455 9.07031 8.83838 9.17871C8.76514 9.28711 8.72852 9.4292 8.72852 9.60498V9.86865H7.56396V9.54346C7.56396 9.26221 7.62402 9.01758 7.74414 8.80957C7.86426 8.60156 8.08105 8.38477 8.39453 8.15918C8.70801 7.93066 8.91309 7.74756 9.00977 7.60986C9.10938 7.47217 9.15918 7.31396 9.15918 7.13525C9.15918 6.95361 9.08887 6.81299 8.94824 6.71338C8.80762 6.61377 8.61133 6.56396 8.35938 6.56396C7.91992 6.56396 7.41895 6.70752 6.85645 6.99463L6.37744 6.03223ZM7.42334 11.3716C7.42334 10.8735 7.68115 10.6245 8.19678 10.6245C8.43994 10.6245 8.62744 10.689 8.75928 10.8179C8.89404 10.9468 8.96143 11.1299 8.96143 11.3672C8.96143 11.6016 8.89404 11.7861 8.75928 11.9209C8.62451 12.0527 8.43555 12.1187 8.19238 12.1187C7.94922 12.1187 7.76025 12.0542 7.62549 11.9253C7.49072 11.7935 7.42334 11.6089 7.42334 11.3716Z" fill="white"/>
</svg>
