<svg width="17" height="15" viewBox="0 0 17 15" fill="none" xmlns="http://www.w3.org/2000/svg">
<path d="M16.0012 7.26694C15.1936 8.04545 14.4408 8.77778 13.6812 9.5101C13.5991 9.58927 13.5375 9.71463 13.387 9.56948C12.6136 8.81736 11.8266 8.07184 10.9917 7.27353C11.594 7.27353 12.1004 7.27353 12.6068 7.27353C12.3262 5.14253 10.5538 3.40737 8.2612 3.00492C5.86599 2.58268 3.38181 3.8626 2.42373 6.02C1.05504 9.08786 3.16282 12.6175 6.60508 13.0134C8.70602 13.2575 10.4032 12.5516 11.6898 10.9352C11.8061 10.79 11.8745 10.7702 12.0251 10.889C12.3741 11.1727 12.73 11.4432 13.0995 11.7071C13.2569 11.8192 13.2843 11.8984 13.1611 12.07C11.0944 14.9861 6.70773 15.8899 3.58027 14.0294C1.28771 12.6505 0.049047 10.6515 0.00114279 8.05204C-0.0741353 3.97476 3.58027 0.702376 7.80953 1.00586C11.156 1.24997 13.9276 3.73065 14.4203 6.95025C14.4614 7.21416 14.5503 7.29333 14.8241 7.27353C15.1936 7.24714 15.57 7.26694 16.0012 7.26694Z" fill="#9099A9"/>
</svg>
