<svg width="14" height="15" viewBox="0 0 14 15" fill="none" xmlns="http://www.w3.org/2000/svg">
<path d="M13.997 5.02835C13.9081 3.82678 13.8192 2.62907 13.7381 1.42751C13.7303 1.3116 13.7072 1.26524 13.5796 1.26137C13.17 1.24205 12.7566 1.20342 12.347 1.17637C11.5432 1.11456 10.7395 1.06047 9.93962 0.99865C9.82756 0.990923 9.78892 1.0141 9.78119 1.13774C9.76187 1.56273 9.73096 1.98772 9.68845 2.40885C9.673 2.5518 9.71164 2.57885 9.84688 2.58658C10.2835 2.60976 10.7163 2.64453 11.1916 2.6793C11.1259 2.74885 11.0911 2.79134 11.0486 2.82998C10.357 3.52156 9.6614 4.21314 8.97745 4.90858C8.86926 5.02062 8.80357 5.02062 8.67991 4.93562C7.53999 4.14359 6.27255 3.83064 4.89692 3.98132C1.82493 4.31745 -0.3815 7.18036 0.0551483 10.2558C0.49566 13.3582 3.47491 15.487 6.5585 14.8998C10.4806 14.1541 12.347 9.56804 10.0555 6.31105C9.97827 6.20287 9.97054 6.14492 10.071 6.04447C10.7781 5.34902 11.4776 4.64586 12.177 3.94655C12.2156 3.90792 12.2427 3.84996 12.3238 3.8461C12.3547 4.28268 12.3934 4.7154 12.4127 5.15198C12.4204 5.30266 12.4629 5.32584 12.6059 5.31425C13.0155 5.27175 13.4251 5.24085 13.8385 5.22925C13.9931 5.21766 14.0086 5.15971 13.997 5.02835ZM5.53064 13.4084C3.35899 13.4084 1.59308 11.6582 1.58921 9.49849C1.58535 7.28467 3.34353 5.52675 5.55382 5.53061C7.70615 5.53448 9.4682 7.30785 9.4682 9.47531C9.4682 11.6466 7.70615 13.4046 5.53064 13.4084Z" fill="#4D23B3"/>
</svg>
