<svg width="12" height="16" viewBox="0 0 12 16" fill="none" xmlns="http://www.w3.org/2000/svg">
<path d="M7.02966 10.9076C10.3199 10.3539 12.4911 7.50841 11.9043 4.52835C11.3007 1.47524 8.07332 -0.516588 4.76211 0.117875C1.61017 0.721576 -0.506493 3.60934 0.105453 6.48173C0.595847 8.78118 2.47779 10.4885 4.99683 10.9076C5.11418 10.9268 5.14352 10.9653 5.14352 11.0652C5.13933 11.3806 5.14352 11.692 5.14352 12.0073C5.14352 12.3034 5.13095 12.5956 5.14772 12.8917C5.1561 13.0532 5.09323 13.0763 4.93815 13.0763C4.45613 13.0686 3.97412 13.0763 3.49211 13.0725C3.36218 13.0725 3.32445 13.1032 3.32865 13.2224C3.33703 13.6454 3.34122 14.0684 3.32865 14.4913C3.32445 14.6375 3.38313 14.6567 3.52145 14.6528C4.01184 14.6452 4.49805 14.6567 4.98844 14.649C5.12257 14.6452 5.15191 14.6836 5.15191 14.799C5.14353 15.1527 5.15191 15.5026 5.14772 15.8564C5.14353 15.9641 5.18125 15.9948 5.29861 15.9948C5.76804 15.9871 6.23329 15.9871 6.70273 15.9948C6.84943 15.9987 6.87039 15.9487 6.87039 15.8333C6.862 15.4949 6.87458 15.1527 6.862 14.8143C6.85781 14.6759 6.90811 14.6452 7.05062 14.6452C7.53263 14.6528 8.01464 14.6452 8.49665 14.6528C8.63916 14.6567 8.68946 14.6259 8.68526 14.4875C8.67688 14.0722 8.67269 13.6531 8.68526 13.2378C8.68946 13.0955 8.63497 13.0686 8.49246 13.0725C8.01045 13.0801 7.52844 13.0686 7.04642 13.0801C6.89973 13.084 6.85781 13.0455 6.862 12.911C6.87039 12.3073 6.86619 11.7074 6.862 11.1037C6.85362 10.9806 6.87877 10.9307 7.02966 10.9076ZM6.00696 9.41564C3.65138 9.41564 1.73172 7.65837 1.72753 5.49735C1.72753 3.33633 3.643 1.57522 5.99857 1.57522C8.35414 1.57522 10.2738 3.33249 10.278 5.49351C10.278 7.65068 8.35834 9.41564 6.00696 9.41564Z" fill="#FF6056"/>
</svg>
