<svg width="16" height="14" viewBox="0 0 16 14" fill="none" xmlns="http://www.w3.org/2000/svg">
<path d="M8.86418 9.69642C8.86418 9.30934 8.85623 8.91867 8.86816 8.53159C8.87213 8.39539 8.82441 8.36672 8.68125 8.36313C7.29336 8.32371 6.01683 8.67853 4.80392 9.25199C3.07005 10.0728 1.70205 11.2304 0.823188 12.8289C0.644234 13.1551 0.497094 13.492 0.381768 13.8396C0.345977 13.94 0.286326 14.0153 0.155093 13.9974C0.0198838 13.9794 0 13.8898 0 13.7859C0.00795351 11.9186 0.258489 10.0835 0.998165 8.32729C1.77761 6.47072 3.00245 4.92239 4.88345 3.83999C6.04864 3.16976 7.31722 2.77909 8.70511 2.71458C8.85225 2.70741 8.87213 2.66082 8.86816 2.54613C8.8602 1.78271 8.8602 1.01571 8.85623 0.252298C8.85623 0.162696 8.83634 0.0659246 8.95167 0.0193312C9.07097 -0.0272621 9.16641 0.0157471 9.25788 0.0910134C11.457 1.85081 13.6601 3.61061 15.8593 5.36682C16.0502 5.52094 16.0462 5.58187 15.8513 5.73957C13.6681 7.48861 11.4849 9.24124 9.30162 10.9903C9.26583 11.019 9.23402 11.0476 9.19823 11.0727C9.12267 11.1229 9.04711 11.1372 8.95565 11.0978C8.86816 11.0584 8.85623 10.9939 8.85623 10.9186C8.85623 10.5136 8.85623 10.105 8.85623 9.7C8.85623 9.69642 8.8602 9.69642 8.86418 9.69642Z" fill="#9099A9"/>
</svg>
