<svg width="12" height="12" viewBox="0 0 12 12" fill="none" xmlns="http://www.w3.org/2000/svg">
<path d="M12 5.99724C11.9972 9.34344 9.31096 12.0055 5.93795 12C2.67801 11.9972 -0.00550748 9.27724 8.48838e-06 5.98069C0.00552446 2.67035 2.70283 -0.00550872 6.03172 8.51648e-06C9.32199 0.00552575 12.0028 2.70069 12 5.99724ZM5.99311 9.12C6.5254 9.12 7.04666 9.04276 7.55413 8.88551C8.45323 8.60689 9.21719 8.12138 9.82671 7.39862C9.98667 7.20827 9.97012 6.96 9.79085 6.80828C9.61434 6.65655 9.36888 6.68138 9.2034 6.86896C9.14273 6.93793 9.08205 7.0069 9.01862 7.0731C7.68927 8.43034 5.42221 8.69517 3.75363 7.68827C3.38406 7.46483 3.06413 7.18621 2.78281 6.86069C2.67525 6.73655 2.54011 6.68414 2.37463 6.72552C2.21191 6.7669 2.10987 6.87172 2.07125 7.03172C2.02989 7.19448 2.09883 7.32414 2.2064 7.44552C3.21858 8.57379 4.50104 9.08413 5.99311 9.12ZM4.57826 3.70207C4.57826 3.34345 4.4707 3.00966 4.2804 2.77794C3.94117 2.36414 3.43646 2.36966 3.10826 2.78897C2.7249 3.27725 2.71938 4.11586 3.09722 4.6069C3.44197 5.05655 3.97702 5.05379 4.31074 4.59586C4.5038 4.33104 4.57826 4.02759 4.57826 3.70207ZM9.18685 3.71035C9.18685 3.33793 9.07929 3.00414 8.8752 2.76414C8.54976 2.37794 8.0616 2.37794 7.73615 2.76414C7.33349 3.24414 7.3197 4.11862 7.70857 4.61242C8.05884 5.05931 8.58837 5.05104 8.92209 4.58759C9.11239 4.32828 9.18961 4.03035 9.18685 3.71035Z" fill="#9099A9"/>
</svg>
