<svg width="14" height="14" viewBox="0 0 14 14" fill="none" xmlns="http://www.w3.org/2000/svg">
<path d="M0 5.75934C0 5.60599 0 5.45831 0 5.30496C0.0820312 5.01528 0.284375 4.86193 0.541406 4.75401C0.929688 4.5893 1.34531 4.60634 1.75 4.54954C2.26406 4.4757 2.78359 4.47002 3.30313 4.48706C3.72422 4.5041 4.13984 4.40754 4.55547 4.42458C4.74688 4.43026 4.82344 4.29963 4.87266 4.13491C5.10781 3.41357 5.35938 2.7036 5.6 1.98794C5.75313 1.53923 5.90625 1.09621 6.13594 0.681579C6.32734 0.32943 6.5625 0 7.00547 0C7.44844 0.00567982 7.68359 0.32943 7.86953 0.687259C8.23047 1.37452 8.43828 2.11857 8.68984 2.85127C8.8375 3.27726 9.00156 3.70324 9.12187 4.13491C9.18203 4.33938 9.28594 4.40754 9.49375 4.42458C10.6094 4.49274 11.7359 4.4473 12.8461 4.59498C13.1086 4.62906 13.3656 4.70289 13.6062 4.81649C13.8086 4.91305 13.9398 5.07208 14 5.29927C14 5.45263 14 5.60031 14 5.75366C13.918 6.12853 13.6719 6.37844 13.393 6.59995C12.5672 7.27017 11.7359 7.92903 10.8992 8.58789C10.593 8.82645 10.5984 8.82645 10.6969 9.19563C10.9813 10.2237 11.3039 11.2404 11.55 12.2798C11.6156 12.5467 11.6758 12.8137 11.6594 13.092C11.6047 13.9837 11.1781 14.0746 10.5547 13.961C10.3195 13.9212 10.1172 13.7849 9.92031 13.6429C9.03437 12.9954 8.1375 12.365 7.24609 11.7232C7.07109 11.5982 6.93984 11.5868 6.75938 11.7175C5.88438 12.3479 4.99844 12.967 4.12891 13.6032C3.78984 13.8474 3.43984 14.0178 3.01328 13.9894C2.73984 13.9724 2.54844 13.8474 2.43906 13.5918C2.29688 13.2567 2.30234 12.9046 2.37344 12.5638C2.54297 11.7686 2.78359 10.9961 3.00234 10.2123C3.10078 9.86017 3.19922 9.50234 3.30859 9.1502C3.38516 8.91164 3.325 8.76397 3.13906 8.61629C2.28594 7.95743 1.44375 7.27585 0.601562 6.59995C0.328125 6.37844 0.0820312 6.12853 0 5.75934Z" fill="#4D23B3"/>
</svg>
