<svg width="12" height="12" viewBox="0 0 12 12" fill="none" xmlns="http://www.w3.org/2000/svg">
<path d="M0 4.93658C0 4.80513 0 4.67855 0 4.5471C0.0703125 4.29881 0.24375 4.16737 0.464062 4.07487C0.796875 3.93368 1.15313 3.94829 1.5 3.8996C1.94062 3.83631 2.38594 3.83145 2.83125 3.84605C3.19219 3.86066 3.54844 3.77789 3.90469 3.7925C4.06875 3.79737 4.13438 3.68539 4.17656 3.54421C4.37812 2.92592 4.59375 2.31737 4.8 1.70395C4.93125 1.31934 5.0625 0.939605 5.25937 0.58421C5.42344 0.282368 5.625 0 6.00469 0C6.38438 0.00486842 6.58594 0.282368 6.74531 0.589079C7.05469 1.17816 7.23281 1.81592 7.44844 2.44395C7.575 2.80908 7.71563 3.17421 7.81875 3.54421C7.87031 3.71947 7.95938 3.77789 8.1375 3.7925C9.09375 3.85092 10.0594 3.81197 11.0109 3.93855C11.2359 3.96776 11.4563 4.03105 11.6625 4.12842C11.8359 4.21118 11.9484 4.3475 12 4.54224C12 4.67368 12 4.80026 12 4.93171C11.9297 5.25302 11.7188 5.46724 11.4797 5.6571C10.7719 6.23158 10.0594 6.79631 9.34219 7.36105C9.07969 7.56553 9.08438 7.56553 9.16875 7.88197C9.4125 8.76316 9.68906 9.6346 9.9 10.5255C9.95625 10.7543 10.0078 10.9832 9.99375 11.2217C9.94687 11.986 9.58125 12.0639 9.04688 11.9666C8.84531 11.9325 8.67188 11.8157 8.50312 11.6939C7.74375 11.1389 6.975 10.5986 6.21094 10.0484C6.06094 9.94131 5.94844 9.93158 5.79375 10.0436C5.04375 10.5839 4.28438 11.1146 3.53906 11.6599C3.24844 11.8692 2.94844 12.0153 2.58281 11.9909C2.34844 11.9763 2.18437 11.8692 2.09062 11.6501C1.96875 11.3629 1.97344 11.0611 2.03438 10.7689C2.17969 10.0874 2.38594 9.42526 2.57344 8.75342C2.65781 8.45158 2.74219 8.14487 2.83594 7.84302C2.90156 7.63855 2.85 7.51197 2.69063 7.38539C1.95938 6.82066 1.2375 6.23645 0.515625 5.6571C0.28125 5.46724 0.0703125 5.25303 0 4.93658Z" fill="#9099A9"/>
</svg>
