<svg width="12" height="14" viewBox="0 0 12 14" fill="none" xmlns="http://www.w3.org/2000/svg">
<path d="M1.65315 13.9971C1.1765 13.9931 0.696063 13.9774 0.219411 13.9261C0.079442 13.9103 0 13.863 0 13.6973C0.0226977 12.2928 0.208062 10.9239 0.98735 9.72853C1.46778 8.99475 2.13358 8.48978 2.90531 8.12289C3.12472 8.02032 3.34035 8.04399 3.55976 8.13078C4.34283 8.4306 5.07294 8.84878 5.81439 9.25118C5.96193 9.33008 6.07542 9.33403 6.22674 9.25118C6.93793 8.86456 7.64534 8.474 8.39058 8.16234C8.73483 8.02032 9.03747 8.05582 9.35902 8.22941C10.6301 8.91979 11.4396 9.98102 11.7725 11.4446C11.9541 12.2376 11.9617 13.0424 11.9995 13.8472C12.0071 13.9931 11.9239 13.9655 11.8444 13.9655C11.137 13.9695 10.4334 13.9695 9.72597 13.9734C8.55325 13.9734 7.38054 13.9734 6.20782 13.9734C6.20782 13.9813 3.17011 14.0089 1.65315 13.9971Z" fill="#9099A9"/>
<path d="M5.98084 6.94332C7.81939 6.94332 9.30984 5.38901 9.30984 3.47166C9.30984 1.55432 7.81939 0 5.98084 0C4.14229 0 2.65185 1.55432 2.65185 3.47166C2.65185 5.38901 4.14229 6.94332 5.98084 6.94332Z" fill="#9099A9"/>
</svg>
