<svg width="16" height="16" viewBox="0 0 16 16" fill="none" xmlns="http://www.w3.org/2000/svg">
<path d="M15.6689 14.4442C14.4468 13.2223 13.2247 11.997 11.9991 10.7786C11.9192 10.6988 11.8915 10.6537 11.9713 10.5461C12.8254 9.38323 13.249 8.07808 13.2559 6.63408C13.2629 6.1863 13.2177 5.74546 13.1274 5.3081C12.3775 1.6148 8.64523 -0.728227 4.99974 0.205512C1.53826 1.09065 -0.607371 4.55833 0.152974 8.04336C1.16677 12.7051 6.69055 14.8052 10.5305 11.9831C10.6485 11.8963 10.7006 11.9172 10.7909 12.0074C11.6588 12.8821 12.5303 13.7534 13.4017 14.6247C13.7941 15.0169 14.1794 15.4196 14.5891 15.791C14.9571 16.1242 15.5161 16.0444 15.8147 15.6556C16.1063 15.2842 16.0508 14.826 15.6689 14.4442ZM6.61417 11.5353C3.90956 11.518 1.71186 9.31033 1.72574 6.62366C1.73963 3.91964 3.94081 1.72587 6.635 1.73282C9.33961 1.73629 11.5512 3.95782 11.5338 6.65143C11.513 9.35199 9.30142 11.5492 6.61417 11.5353Z" fill="#1E2638"/>
</svg>
