<?xml version="1.0" standalone="no"?>
<!DOCTYPE svg PUBLIC "-//W3C//DTD SVG 20010904//EN"
 "http://www.w3.org/TR/2001/REC-SVG-20010904/DTD/svg10.dtd">
<svg version="1.0" xmlns="http://www.w3.org/2000/svg"
 width="256.000000pt" height="256.000000pt" viewBox="0 0 256.000000 256.000000"
 preserveAspectRatio="xMidYMid meet">
<metadata>
Created by potrace 1.11, written by Peter Selinger 2001-2013
</metadata>
<g transform="translate(0.000000,256.000000) scale(0.100000,-0.100000)"
fill="#000000" stroke="none">
<path d="M1288 2165 c-2 -2 -27 -6 -57 -9 -79 -9 -136 -25 -221 -61 -251 -105
-441 -320 -511 -580 -31 -113 -35 -331 -8 -430 10 -38 21 -77 23 -86 16 -63
128 -259 147 -259 5 0 9 -6 9 -13 0 -11 86 -98 139 -140 82 -65 256 -146 346
-162 22 -4 51 -9 65 -12 48 -8 195 -9 245 0 101 16 114 20 171 40 89 33 209
97 261 142 123 106 222 242 272 372 17 45 31 86 31 91 0 8 -63 26 -125 37 -11
2 -20 4 -20 5 0 1 -11 3 -25 6 -14 2 -52 11 -85 19 -151 36 -145 36 -156 7
-39 -103 -112 -191 -211 -255 -16 -10 -28 -15 -28 -11 0 4 -6 2 -12 -3 -15
-12 -71 -30 -115 -38 -91 -15 -190 0 -279 42 -273 129 -346 496 -143 726 85
98 214 154 349 154 80 0 84 1 91 24 4 13 24 96 44 184 20 88 39 168 42 178 3
12 -2 17 -19 18 -13 0 -32 3 -43 5 -22 5 -173 12 -177 9z"/>
</g>
</svg>
